<svg width="264" height="225" viewBox="0 0 264 225" fill="none" xmlns="http://www.w3.org/2000/svg">
<g clip-path="url(#clip0)">
<path d="M33.4967 221.766L33.0437 221.576C38.0952 179.555 50.79 141.397 68.7896 114.13C82.398 93.5466 98.5829 79.7807 115.821 74.1279C133.058 68.4751 150.782 71.1213 167.322 81.8176C183.862 92.5138 198.674 110.908 210.365 135.268C222.055 159.629 230.239 189.153 234.145 221.063L233.692 221.255C222.999 133.433 181.85 72.0964 133.625 72.0964C86.0326 72.0964 43.9224 135.042 33.4967 221.766Z" fill="#3F3D56"/>
<path d="M208.886 119.097C215.851 119.097 221.497 108.536 221.497 95.5072C221.497 82.4788 215.851 71.9173 208.886 71.9173C201.921 71.9173 196.274 82.4788 196.274 95.5072C196.274 108.536 201.921 119.097 208.886 119.097Z" fill="#FF6584"/>
<path d="M204.095 189.82H203.631V224.131H204.095V189.82Z" fill="#3F3D56"/>
<path d="M208.381 194.193C208.41 206.191 203.898 215.956 203.898 215.956C203.898 215.956 199.337 206.269 199.307 194.271C199.278 182.274 203.791 172.508 203.791 172.508C203.791 172.508 208.351 182.195 208.381 194.193Z" fill="#9F414B"/>
<path opacity="0.1" d="M208.381 194.193C208.41 206.191 203.898 215.956 203.898 215.956C203.898 215.956 199.337 206.269 199.307 194.271C199.278 182.274 203.791 172.508 203.791 172.508C203.791 172.508 208.351 182.195 208.381 194.193Z" fill="black"/>
<path opacity="0.4" d="M116.332 121.604C120.339 121.604 123.588 115.528 123.588 108.032C123.588 100.537 120.339 94.461 116.332 94.461C112.325 94.461 109.077 100.537 109.077 108.032C109.077 115.528 112.325 121.604 116.332 121.604Z" fill="#9F414B"/>
<path opacity="0.4" d="M102.904 124.035C105.715 124.035 107.994 119.772 107.994 114.514C107.994 109.256 105.715 104.994 102.904 104.994C100.093 104.994 97.8146 109.256 97.8146 114.514C97.8146 119.772 100.093 124.035 102.904 124.035Z" fill="#9F414B"/>
<path opacity="0.4" d="M48.3395 151.397C51.1505 151.397 53.4292 147.134 53.4292 141.876C53.4292 136.618 51.1505 132.356 48.3395 132.356C45.5286 132.356 43.2499 136.618 43.2499 141.876C43.2499 147.134 45.5286 151.397 48.3395 151.397Z" fill="#9F414B"/>
<path opacity="0.4" d="M198.827 120.487C202.834 120.487 206.083 114.411 206.083 106.916C206.083 99.4207 202.834 93.3446 198.827 93.3446C194.82 93.3446 191.572 99.4207 191.572 106.916C191.572 114.411 194.82 120.487 198.827 120.487Z" fill="#9F414B"/>
<path d="M13.149 220.316C13.5424 223.036 14.8896 224.72 14.8896 224.72C14.8896 224.72 15.5991 221.995 15.2058 219.276C14.8124 216.556 13.4652 214.872 13.4652 214.872C13.4652 214.872 12.7557 217.597 13.149 220.316Z" fill="#3F3D56"/>
<path d="M13.7271 219.732C14.8063 221.697 14.9382 224.718 14.9382 224.718C14.9382 224.718 13.3202 224.553 12.2409 222.588C11.1616 220.622 11.0298 217.601 11.0298 217.601C11.0298 217.601 12.6478 217.767 13.7271 219.732Z" fill="#9F414B"/>
<path d="M155.249 220.316C155.643 223.036 156.99 224.72 156.99 224.72C156.99 224.72 157.699 221.995 157.306 219.276C156.913 216.556 155.565 214.872 155.565 214.872C155.565 214.872 154.856 217.597 155.249 220.316Z" fill="#3F3D56"/>
<path d="M155.827 219.732C156.907 221.697 157.038 224.718 157.038 224.718C157.038 224.718 155.42 224.553 154.341 222.588C153.262 220.622 153.13 217.601 153.13 217.601C153.13 217.601 154.748 217.767 155.827 219.732Z" fill="#9F414B"/>
<path d="M15.8207 199.873L14.8601 196.879L23.8259 182.504H46.881V186.696L38.5556 203.467L28.9492 207.061L15.8207 199.873Z" fill="#3F3D56"/>
<path d="M50.8496 190.939V181.568H47.8312V184.523L46.8811 182.504L39.196 196.879L37.915 199.274L36.3141 211.254L39.196 224.43H53.9255V197.478L50.8496 190.939Z" fill="#CCCCCC"/>
<path d="M39.1959 196.879H14.8601V224.43H39.1959V196.879Z" fill="#F2F2F2"/>
<path d="M35.8338 205.563H30.7104V213.949H35.8338V205.563Z" fill="#3F3D56"/>
<path d="M28.629 205.264H24.1461V224.43H28.629V205.264Z" fill="#CCCCCC"/>
<path d="M19.0228 208.259V205.264H17.1017V208.259H18.8626H19.0228Z" fill="#3F3D56"/>
<path d="M18.8626 210.654H17.1017V213.649H19.0228V210.654H18.8626Z" fill="#3F3D56"/>
<path d="M22.225 205.264H20.3037V208.259H22.225V205.264Z" fill="#3F3D56"/>
<path d="M22.225 210.654H20.3037V213.649H22.225V210.654Z" fill="#3F3D56"/>
<path d="M46.0804 208.558V205.563H44.1591V208.558H45.9202H46.0804Z" fill="#3F3D56"/>
<path d="M45.9202 210.954H44.1591V213.949H46.0804V210.954H45.9202Z" fill="#3F3D56"/>
<path d="M49.2825 205.563H47.3612V208.558H49.2825V205.563Z" fill="#3F3D56"/>
<path d="M49.2825 210.954H47.3612V213.949H49.2825V210.954Z" fill="#3F3D56"/>
<path d="M108.464 199.873L107.504 196.879L116.47 182.504H139.525V186.696L131.199 203.467L121.593 207.061L108.464 199.873Z" fill="#3F3D56"/>
<path d="M143.493 190.939V181.568H140.475V184.523L139.525 182.504L131.84 196.879L130.559 199.274L128.958 211.254L131.84 224.43H146.569V197.478L143.493 190.939Z" fill="#CCCCCC"/>
<path d="M131.84 196.879H107.504V224.43H131.84V196.879Z" fill="#F2F2F2"/>
<path d="M128.478 205.563H123.354V213.949H128.478V205.563Z" fill="#3F3D56"/>
<path d="M121.273 205.264H116.79V224.43H121.273V205.264Z" fill="#CCCCCC"/>
<path d="M111.667 208.259V205.264H109.745V208.259H111.506H111.667Z" fill="#3F3D56"/>
<path d="M111.506 210.654H109.745V213.649H111.667V210.654H111.506Z" fill="#3F3D56"/>
<path d="M114.869 205.264H112.947V208.259H114.869V205.264Z" fill="#3F3D56"/>
<path d="M114.869 210.654H112.947V213.649H114.869V210.654Z" fill="#3F3D56"/>
<path d="M138.724 208.558V205.563H136.803V208.558H138.564H138.724Z" fill="#3F3D56"/>
<path d="M138.564 210.954H136.803V213.949H138.724V210.954H138.564Z" fill="#3F3D56"/>
<path d="M141.926 205.563H140.005V208.558H141.926V205.563Z" fill="#3F3D56"/>
<path d="M141.926 210.954H140.005V213.949H141.926V210.954Z" fill="#3F3D56"/>
<path d="M65.1328 149.561L63.5319 147.165L72.4976 132.191H95.2323V145.368L80.5029 163.936L65.1328 149.561Z" fill="#3F3D56"/>
<path d="M99.3773 140.591V132.491H96.3588V134.474L95.2323 132.191L87.8674 147.165L84.9857 150.759L80.5172 211.825L87.2561 224.43H102.917V147.764L99.3773 140.591Z" fill="#CCCCCC"/>
<path d="M87.8674 147.165H63.5316V224.43H87.8674V147.165Z" fill="#F2F2F2"/>
<path d="M77.4608 205.563H72.9779V224.43H77.4608V205.563Z" fill="#CCCCCC"/>
<path d="M68.1747 210.954V207.959H66.2535V210.954H68.0147H68.1747Z" fill="#3F3D56"/>
<path d="M68.0147 213.35H66.2535V216.345H68.1747V213.35H68.0147Z" fill="#3F3D56"/>
<path d="M71.3768 207.959H69.4556V210.954H71.3768V207.959Z" fill="#3F3D56"/>
<path d="M71.3768 213.35H69.4556V216.345H71.3768V213.35Z" fill="#3F3D56"/>
<path d="M81.3032 210.954V207.959H79.3821V210.954H81.1432H81.3032Z" fill="#3F3D56"/>
<path d="M81.1432 213.35H79.3821V216.345H81.3032V213.35H81.1432Z" fill="#3F3D56"/>
<path d="M84.5053 207.959H82.5841V210.954H84.5053V207.959Z" fill="#3F3D56"/>
<path d="M84.5053 213.35H82.5841V216.345H84.5053V213.35Z" fill="#3F3D56"/>
<path d="M94.752 151.058V148.064H92.8308V151.058H94.592H94.752Z" fill="#3F3D56"/>
<path d="M94.592 153.455H92.8308V156.449H94.752V153.455H94.592Z" fill="#3F3D56"/>
<path d="M97.954 148.064H96.0327V151.059H97.954V148.064Z" fill="#3F3D56"/>
<path d="M97.954 153.454H96.0327V156.449H97.954V153.454Z" fill="#3F3D56"/>
<path d="M94.752 167.829V164.834H92.8308V167.829H94.592H94.752Z" fill="#3F3D56"/>
<path d="M94.592 170.225H92.8308V173.22H94.752V170.225H94.592Z" fill="#3F3D56"/>
<path d="M97.954 164.835H96.0327V167.829H97.954V164.835Z" fill="#3F3D56"/>
<path d="M97.954 170.225H96.0327V173.22H97.954V170.225Z" fill="#3F3D56"/>
<path d="M94.752 184.6V181.605H92.8308V184.6H94.592H94.752Z" fill="#3F3D56"/>
<path d="M94.592 186.996H92.8308V189.99H94.752V186.996H94.592Z" fill="#3F3D56"/>
<path d="M97.954 181.605H96.0327V184.6H97.954V181.605Z" fill="#3F3D56"/>
<path d="M97.954 186.996H96.0327V189.991H97.954V186.996Z" fill="#3F3D56"/>
<path d="M94.752 201.371V198.376H92.8308V201.371H94.592H94.752Z" fill="#3F3D56"/>
<path d="M94.592 203.766H92.8308V206.761H94.752V203.766H94.592Z" fill="#3F3D56"/>
<path d="M97.954 198.376H96.0327V201.371H97.954V198.376Z" fill="#3F3D56"/>
<path d="M97.954 203.767H96.0327V206.761H97.954V203.767Z" fill="#3F3D56"/>
<path d="M84.8256 151.059H66.2535V158.246H84.8256V151.059Z" fill="#3F3D56"/>
<path d="M84.8256 165.433H66.2535V172.621H84.8256V165.433Z" fill="#3F3D56"/>
<path d="M84.8256 179.808H66.2535V186.996H84.8256V179.808Z" fill="#3F3D56"/>
<path d="M84.8256 194.183H66.2535V201.371H84.8256V194.183Z" fill="#3F3D56"/>
<path d="M158.705 149.561L157.104 147.165L166.07 132.191H188.805V145.368L174.075 163.936L158.705 149.561Z" fill="#3F3D56"/>
<path d="M192.95 140.591V132.491H189.931V134.474L188.805 132.191L181.44 147.165L178.558 150.759L174.09 211.825L180.829 224.43H196.49V147.764L192.95 140.591Z" fill="#CCCCCC"/>
<path d="M181.44 147.165H157.104V224.43H181.44V147.165Z" fill="#F2F2F2"/>
<path d="M171.033 205.563H166.55V224.43H171.033V205.563Z" fill="#CCCCCC"/>
<path d="M161.747 210.954V207.959H159.826V210.954H161.587H161.747Z" fill="#3F3D56"/>
<path d="M161.587 213.35H159.826V216.345H161.747V213.35H161.587Z" fill="#3F3D56"/>
<path d="M164.949 207.959H163.028V210.954H164.949V207.959Z" fill="#3F3D56"/>
<path d="M164.949 213.35H163.028V216.345H164.949V213.35Z" fill="#3F3D56"/>
<path d="M174.876 210.954V207.959H172.955V210.954H174.716H174.876Z" fill="#3F3D56"/>
<path d="M174.716 213.35H172.955V216.345H174.876V213.35H174.716Z" fill="#3F3D56"/>
<path d="M178.078 207.959H176.157V210.954H178.078V207.959Z" fill="#3F3D56"/>
<path d="M178.078 213.35H176.157V216.345H178.078V213.35Z" fill="#3F3D56"/>
<path d="M188.324 151.058V148.064H186.403V151.058H188.164H188.324Z" fill="#3F3D56"/>
<path d="M188.164 153.455H186.403V156.449H188.324V153.455H188.164Z" fill="#3F3D56"/>
<path d="M191.527 148.064H189.605V151.059H191.527V148.064Z" fill="#3F3D56"/>
<path d="M191.527 153.454H189.605V156.449H191.527V153.454Z" fill="#3F3D56"/>
<path d="M188.324 167.829V164.834H186.403V167.829H188.164H188.324Z" fill="#3F3D56"/>
<path d="M188.164 170.225H186.403V173.22H188.324V170.225H188.164Z" fill="#3F3D56"/>
<path d="M191.527 164.835H189.605V167.829H191.527V164.835Z" fill="#3F3D56"/>
<path d="M191.527 170.225H189.605V173.22H191.527V170.225Z" fill="#3F3D56"/>
<path d="M188.324 184.6V181.605H186.403V184.6H188.164H188.324Z" fill="#3F3D56"/>
<path d="M188.164 186.996H186.403V189.99H188.324V186.996H188.164Z" fill="#3F3D56"/>
<path d="M191.527 181.605H189.605V184.6H191.527V181.605Z" fill="#3F3D56"/>
<path d="M191.527 186.996H189.605V189.991H191.527V186.996Z" fill="#3F3D56"/>
<path d="M188.324 201.371V198.376H186.403V201.371H188.164H188.324Z" fill="#3F3D56"/>
<path d="M188.164 203.766H186.403V206.761H188.324V203.766H188.164Z" fill="#3F3D56"/>
<path d="M191.527 198.376H189.605V201.371H191.527V198.376Z" fill="#3F3D56"/>
<path d="M191.527 203.767H189.605V206.761H191.527V203.767Z" fill="#3F3D56"/>
<path d="M178.398 151.059H159.826V158.246H178.398V151.059Z" fill="#3F3D56"/>
<path d="M178.398 165.433H159.826V172.621H178.398V165.433Z" fill="#3F3D56"/>
<path d="M178.398 179.808H159.826V186.996H178.398V179.808Z" fill="#3F3D56"/>
<path d="M178.398 194.183H159.826V201.371H178.398V194.183Z" fill="#3F3D56"/>
<path d="M210.019 149.561L208.418 147.165L217.384 132.191H240.119V145.368L225.389 163.936L210.019 149.561Z" fill="#3F3D56"/>
<path d="M244.264 140.591V132.491H241.245V134.474L240.119 132.191L232.754 147.165L229.872 150.759L225.404 211.825L232.143 224.43H247.804V147.764L244.264 140.591Z" fill="#CCCCCC"/>
<path d="M232.754 147.165H208.418V224.43H232.754V147.165Z" fill="#F2F2F2"/>
<path d="M222.347 205.563H217.864V224.43H222.347V205.563Z" fill="#CCCCCC"/>
<path d="M213.061 210.954V207.959H211.14V210.954H212.901H213.061Z" fill="#3F3D56"/>
<path d="M212.901 213.35H211.14V216.345H213.061V213.35H212.901Z" fill="#3F3D56"/>
<path d="M216.263 207.959H214.342V210.954H216.263V207.959Z" fill="#3F3D56"/>
<path d="M216.263 213.35H214.342V216.345H216.263V213.35Z" fill="#3F3D56"/>
<path d="M226.19 210.954V207.959H224.269V210.954H226.03H226.19Z" fill="#3F3D56"/>
<path d="M226.03 213.35H224.269V216.345H226.19V213.35H226.03Z" fill="#3F3D56"/>
<path d="M229.392 207.959H227.471V210.954H229.392V207.959Z" fill="#3F3D56"/>
<path d="M229.392 213.35H227.471V216.345H229.392V213.35Z" fill="#3F3D56"/>
<path d="M239.638 151.058V148.064H237.717V151.058H239.478H239.638Z" fill="#3F3D56"/>
<path d="M239.478 153.455H237.717V156.449H239.638V153.455H239.478Z" fill="#3F3D56"/>
<path d="M242.841 148.064H240.919V151.059H242.841V148.064Z" fill="#3F3D56"/>
<path d="M242.841 153.454H240.919V156.449H242.841V153.454Z" fill="#3F3D56"/>
<path d="M239.638 167.829V164.834H237.717V167.829H239.478H239.638Z" fill="#3F3D56"/>
<path d="M239.478 170.225H237.717V173.22H239.638V170.225H239.478Z" fill="#3F3D56"/>
<path d="M242.841 164.835H240.919V167.829H242.841V164.835Z" fill="#3F3D56"/>
<path d="M242.841 170.225H240.919V173.22H242.841V170.225Z" fill="#3F3D56"/>
<path d="M239.638 184.6V181.605H237.717V184.6H239.478H239.638Z" fill="#3F3D56"/>
<path d="M239.478 186.996H237.717V189.99H239.638V186.996H239.478Z" fill="#3F3D56"/>
<path d="M242.841 181.605H240.919V184.6H242.841V181.605Z" fill="#3F3D56"/>
<path d="M242.841 186.996H240.919V189.991H242.841V186.996Z" fill="#3F3D56"/>
<path d="M239.638 201.371V198.376H237.717V201.371H239.478H239.638Z" fill="#3F3D56"/>
<path d="M239.478 203.766H237.717V206.761H239.638V203.766H239.478Z" fill="#3F3D56"/>
<path d="M242.841 198.376H240.919V201.371H242.841V198.376Z" fill="#3F3D56"/>
<path d="M242.841 203.767H240.919V206.761H242.841V203.767Z" fill="#3F3D56"/>
<path d="M229.712 151.059H211.14V158.246H229.712V151.059Z" fill="#3F3D56"/>
<path d="M229.712 165.433H211.14V172.621H229.712V165.433Z" fill="#3F3D56"/>
<path d="M229.712 179.808H211.14V186.996H229.712V179.808Z" fill="#3F3D56"/>
<path d="M229.712 194.183H211.14V201.371H229.712V194.183Z" fill="#3F3D56"/>
<path d="M264 224.131H0V225H264V224.131Z" fill="#3F3D56"/>
<path d="M58.9762 189.82H58.5118V224.131H58.9762V189.82Z" fill="#3F3D56"/>
<path d="M63.262 194.193C63.2915 206.191 58.7789 215.956 58.7789 215.956C58.7789 215.956 54.2183 206.269 54.1887 194.271C54.1592 182.274 58.6718 172.508 58.6718 172.508C58.6718 172.508 63.2324 182.195 63.262 194.193Z" fill="#9F414B"/>
<path d="M105.414 189.82H104.95V224.131H105.414V189.82Z" fill="#3F3D56"/>
<path d="M109.7 194.193C109.73 206.191 105.217 215.956 105.217 215.956C105.217 215.956 100.656 206.269 100.627 194.271C100.597 182.274 105.11 172.508 105.11 172.508C105.11 172.508 109.67 182.195 109.7 194.193Z" fill="#9F414B"/>
<path d="M198.058 189.82H197.594V224.131H198.058V189.82Z" fill="#3F3D56"/>
<path d="M202.344 194.193C202.373 206.191 197.861 215.956 197.861 215.956C197.861 215.956 193.3 206.269 193.27 194.271C193.241 182.274 197.754 172.508 197.754 172.508C197.754 172.508 202.314 182.195 202.344 194.193Z" fill="#9F414B"/>
<path d="M136.412 74.724C141.285 74.724 145.235 73.0614 145.235 71.0106C145.235 68.9597 141.285 67.2972 136.412 67.2972C131.539 67.2972 127.588 68.9597 127.588 71.0106C127.588 73.0614 131.539 74.724 136.412 74.724Z" fill="#9F414B"/>
<path d="M146.396 19.1099C146.396 29.664 136.179 59.5012 136.179 59.5012C136.179 59.5012 125.963 29.664 125.963 19.1099C125.963 14.0416 127.039 9.18095 128.955 5.59715C130.871 2.01336 133.47 0 136.179 0C138.889 0 141.487 2.01336 143.403 5.59715C145.319 9.18095 146.396 14.0416 146.396 19.1099Z" fill="#9F414B"/>
<path d="M136.179 29.9678C139.385 29.9678 141.984 25.1065 141.984 19.1099C141.984 13.1132 139.385 8.252 136.179 8.252C132.973 8.252 130.375 13.1132 130.375 19.1099C130.375 25.1065 132.973 29.9678 136.179 29.9678Z" fill="#F2F2F2"/>
</g>
<defs>
<clipPath id="clip0">
<rect width="264" height="225" fill="white"/>
</clipPath>
</defs>
</svg>
