<svg width="264" height="225" viewBox="0 0 264 225" fill="none" xmlns="http://www.w3.org/2000/svg">
<path opacity="0.1" d="M214.005 212.932C232.649 212.932 247.763 210.416 247.763 207.312C247.763 204.208 232.649 201.691 214.005 201.691C195.36 201.691 180.246 204.208 180.246 207.312C180.246 210.416 195.36 212.932 214.005 212.932Z" fill="#9F414B"/>
<path opacity="0.1" d="M111.793 205.237C139.395 205.237 161.771 203.705 161.771 201.815C161.771 199.925 139.395 198.393 111.793 198.393C84.1905 198.393 61.8143 199.925 61.8143 201.815C61.8143 203.705 84.1905 205.237 111.793 205.237Z" fill="#9F414B"/>
<path opacity="0.1" d="M81.6779 8.79828C90.6286 1.07823 104.679 -0.493814 117.458 0.121811C157.622 2.04564 193.877 20.8195 225.238 42.0448C236.597 49.7401 247.768 58.0098 255.137 68.5936C270.139 90.135 265.69 119.987 244.829 137.722C237.73 143.769 229.129 148.389 220.294 152.492C204.591 159.789 187.638 165.645 169.822 167.311C157.111 168.501 144.242 167.533 131.605 165.876C96.3023 161.242 61.6496 150.994 32.6109 133.462C19.8721 125.767 7.86307 116.214 2.61249 103.78C-2.63809 91.347 0.724093 75.5771 13.7299 68.2143C19.1253 65.1692 25.543 63.795 31.8414 62.5033C41.1101 60.6015 50.5294 58.7271 58.8951 54.863C67.5391 50.8669 77.762 43.1469 76.0581 34.3137C74.2123 24.8293 72.7385 16.5073 81.6779 8.79828Z" fill="#9F414B"/>
<g opacity="0.1">
<path opacity="0.1" d="M115.476 177.635C116.566 179.43 118.276 180.587 120.201 180.587C123.489 180.587 126.164 177.215 126.164 173.051C126.164 168.887 123.481 165.543 120.201 165.543C118.653 165.543 117.242 166.29 116.183 167.519C115.781 167.989 115.441 168.505 115.169 169.055L115.112 169.382C115.112 169.382 113.843 170.432 112.114 169.467V145.057H87.4879C87.2887 144.804 87.1573 144.508 87.1052 144.194C87.0532 143.881 87.0822 143.559 87.1897 143.259C87.3737 142.701 87.7708 142.232 88.3 141.948C90.1544 140.893 91.3527 139.238 91.3527 137.375C91.3527 134.193 87.8656 131.604 83.5663 131.604C79.267 131.604 75.7799 134.184 75.7799 137.375C75.7799 138.873 76.5551 140.242 77.8244 141.267C78.3096 141.654 78.8417 141.983 79.409 142.245L79.4431 142.3C79.8155 142.649 80.0625 143.104 80.1478 143.599C80.2332 144.093 80.1524 144.602 79.9173 145.048H68.8113V190.253C68.8113 193.096 69.9781 195.822 72.055 197.832C74.1319 199.842 76.9488 200.971 79.8861 200.971H112.122V176.984C112.385 176.743 112.712 176.576 113.066 176.504C113.42 176.431 113.788 176.454 114.13 176.572C114.702 176.747 115.184 177.128 115.476 177.635Z" fill="black"/>
<path opacity="0.1" d="M74.0306 144.106H77.8869C76.9494 143.409 76.1882 142.514 75.6613 141.49C75.1343 140.465 74.8554 139.338 74.8456 138.194C74.8456 133.91 78.7076 130.438 83.4697 130.438C88.2319 130.438 92.0967 133.91 92.0967 138.194C92.087 139.338 91.808 140.465 91.2811 141.49C90.7541 142.514 89.993 143.409 89.0554 144.106H112.17V120.022C112.435 119.783 112.761 119.619 113.115 119.546C113.469 119.473 113.836 119.495 114.178 119.61C114.756 119.787 115.242 120.171 115.535 120.685C116.623 122.479 118.333 123.636 120.261 123.636C123.549 123.636 126.224 120.264 126.224 116.103C126.224 111.942 123.56 108.567 120.261 108.567C118.71 108.567 117.299 109.318 116.24 110.543C115.839 111.014 115.499 111.53 115.226 112.08L115.172 112.113C114.791 112.497 114.287 112.745 113.741 112.815C113.196 112.886 112.642 112.775 112.17 112.5V88.095H88.4619C88.2628 87.8425 88.1313 87.5462 88.0793 87.2326C88.0272 86.9189 88.0563 86.5977 88.1637 86.2976C88.3464 85.7389 88.7439 85.2696 89.2741 84.9866C91.1284 83.934 92.3239 82.2768 92.3239 80.4134C92.3239 77.2308 88.8396 74.6419 84.5403 74.6419C80.241 74.6419 76.7539 77.2226 76.7539 80.4134C76.7539 81.914 77.5291 83.2799 78.7956 84.305C79.2821 84.6926 79.8151 85.022 80.383 85.2862L80.4171 85.3384C80.7895 85.6872 81.0365 86.1423 81.1219 86.637C81.2072 87.1316 81.1264 87.6398 80.8913 88.0867H74.0306V86.85H79.0966C78.1609 86.1539 77.4011 85.2609 76.8747 84.2386C76.3483 83.2163 76.0691 82.0915 76.0582 80.9493C76.0582 76.6647 79.9201 73.1908 84.6851 73.1908C89.4501 73.1908 93.3093 76.6647 93.3093 80.9493C93.298 82.094 93.0171 83.2212 92.4882 84.245C91.9592 85.2689 91.196 86.1627 90.2566 86.8582H112.151V62.4806C112.414 62.2395 112.741 62.0735 113.096 62.0007C113.451 61.928 113.819 61.9514 114.161 62.0683C114.738 62.2458 115.223 62.6304 115.516 63.1429C116.603 64.9376 118.316 66.0946 120.241 66.0946C123.529 66.0946 126.204 62.7224 126.204 58.5587C126.204 54.395 123.541 51.0256 120.241 51.0256C118.69 51.0256 117.279 51.7731 116.22 53.0016C115.818 53.4716 115.478 53.9876 115.206 54.5379L115.152 54.865C115.152 54.865 113.883 55.9148 112.151 54.9502V32.2133H79.9287C76.9914 32.2133 74.1745 33.3425 72.0976 35.3526C70.0207 37.3627 68.8539 40.089 68.8539 42.9317V54.5352H68.6863C68.5139 54.5352 68.3485 54.6015 68.2265 54.7195C68.1046 54.8375 68.036 54.9976 68.036 55.1645V60.6612C68.0368 60.8279 68.1055 60.9875 68.2273 61.1054C68.3491 61.2233 68.5141 61.2898 68.6863 61.2905H68.8539V66.9026H68.6352C68.4625 66.9026 68.2968 66.9688 68.1744 67.0868C68.052 67.2047 67.9828 67.3648 67.9821 67.532V78.0279C67.9828 78.195 68.052 78.3551 68.1744 78.473C68.2968 78.591 68.4625 78.6572 68.6352 78.6572H68.8539V82.7797H68.675C68.5025 82.7797 68.3371 82.846 68.2152 82.964C68.0932 83.0821 68.0247 83.2421 68.0247 83.4091V86.7895H67.8827V93.9132C67.8823 93.9959 67.8989 94.0779 67.9314 94.1544C67.964 94.231 68.0119 94.3005 68.0723 94.359C68.1328 94.4175 68.2046 94.4639 68.2837 94.4954C68.3628 94.5269 68.4475 94.5429 68.533 94.5425H68.7261V144.106H74.0306Z" fill="black"/>
<path opacity="0.1" d="M158.293 71.1377C158.293 70.9705 158.224 70.8102 158.102 70.6917C157.981 70.5732 157.815 70.5063 157.642 70.5056H157.251V69.8158H157.038V42.4012C157.038 41.0477 156.763 39.7073 156.228 38.4567C155.693 37.2062 154.908 36.0699 153.919 35.1128C152.931 34.1557 151.756 33.3966 150.464 32.8787C149.172 32.3609 147.787 32.0946 146.389 32.095H114.442V52.9823C115.172 52.045 116.115 51.2833 117.199 50.7566C118.282 50.2299 119.477 49.9522 120.69 49.9454C125.151 49.9454 128.768 53.6858 128.768 58.2975C128.768 62.9092 125.151 66.6497 120.69 66.6497C119.477 66.6432 118.282 66.3658 117.199 65.839C116.115 65.3122 115.172 64.5504 114.442 63.6128V86.7894H140.283C139.347 86.0903 138.587 85.1944 138.061 84.1693C137.535 83.1442 137.257 82.0168 137.248 80.8723C137.248 76.5821 141.101 73.1055 145.858 73.1055C147.972 73.0941 150.021 73.8089 151.642 75.1228C152.532 75.8107 153.25 76.6836 153.744 77.6768C154.237 78.6699 154.493 79.7578 154.493 80.8599C154.493 81.962 154.237 83.0499 153.744 84.0431C153.25 85.0362 152.532 85.9091 151.642 86.597V86.7812H157.251V86.7619H158.293V71.1377Z" fill="black"/>
<path opacity="0.1" d="M149.714 142.872V140.123C149.831 139.958 149.938 139.787 150.035 139.609C150.415 138.94 150.616 138.189 150.62 137.425C150.619 136.915 150.529 136.41 150.353 135.929C150.198 135.502 149.983 135.097 149.714 134.726C148.405 132.904 145.818 131.661 142.836 131.661C138.534 131.661 135.05 134.242 135.05 137.433C135.05 138.933 135.825 140.299 137.092 141.324C137.578 141.712 138.111 142.041 138.679 142.306L138.713 142.358C139.085 142.707 139.332 143.162 139.417 143.656C139.502 144.151 139.422 144.659 139.187 145.106H114.135V167.642C114.855 166.711 115.787 165.953 116.86 165.429C117.932 164.904 119.116 164.627 120.317 164.619C124.745 164.619 128.331 168.357 128.331 172.966C128.331 177.575 124.745 181.315 120.317 181.315C119.116 181.307 117.932 181.03 116.86 180.506C115.787 179.981 114.855 179.224 114.135 178.292V196.483H142.882C144.691 196.483 146.426 195.789 147.707 194.552C148.988 193.316 149.709 191.638 149.714 189.887V145.114V189.857C149.714 191.611 148.994 193.293 147.713 194.533C146.431 195.773 144.694 196.47 142.882 196.47H114.135V200.867H143.952C146.889 200.867 149.706 199.738 151.783 197.727C153.86 195.717 155.027 192.991 155.027 190.148V145.114V143.933H149.714V142.872Z" fill="black"/>
</g>
<path d="M81.2406 195.461C79.4285 195.461 77.6907 194.764 76.4094 193.524C75.1281 192.284 74.4083 190.602 74.4083 188.849V143.957H69.0952V189.154C69.0952 191.996 70.262 194.723 72.3389 196.733C74.4159 198.743 77.2328 199.872 80.17 199.872H112.406V195.475L81.2406 195.461Z" fill="#3A3768"/>
<path d="M114.394 175.472C114.972 175.648 115.457 176.033 115.748 176.547C116.839 178.342 118.548 179.499 120.474 179.499C123.762 179.499 126.437 176.126 126.437 171.963C126.437 167.799 123.765 164.443 120.485 164.443C118.937 164.443 117.526 165.191 116.467 166.419C116.065 166.889 115.725 167.405 115.453 167.956L115.396 168.283C115.396 168.283 114.127 169.333 112.398 168.368V143.957H87.7719C87.5727 143.705 87.4413 143.409 87.3892 143.095C87.3372 142.781 87.3662 142.46 87.4737 142.16C87.6577 141.602 88.0548 141.133 88.584 140.849C90.4384 139.794 91.6367 138.139 91.6367 136.276C91.6367 133.093 88.1496 130.504 83.8503 130.504C79.551 130.504 76.0639 133.085 76.0639 136.276C76.0639 137.774 76.8391 139.142 78.1084 140.167C78.5936 140.555 79.1257 140.883 79.693 141.146L79.7271 141.201C80.0995 141.55 80.3465 142.005 80.4318 142.499C80.5172 142.994 80.4364 143.502 80.2013 143.949H74.4083V188.848C74.4083 190.602 75.1281 192.284 76.4095 193.524C77.6908 194.764 79.4286 195.461 81.2406 195.461H112.406V175.885C112.667 175.647 112.99 175.483 113.341 175.41C113.691 175.337 114.055 175.359 114.394 175.472Z" fill="#9F414B"/>
<path d="M69.0016 85.6681H68.1582V86.9983H69.0016V85.6681Z" fill="#3A3768"/>
<path d="M74.3146 85.6681H69.7058V86.9983H74.3146V85.6681Z" fill="#3A3768"/>
<path d="M69.7058 85.6681H69.0016V86.9983H69.7058V85.6681Z" fill="#3A3768"/>
<path d="M68.8085 93.4211H69.0016V86.9955H68.1497V92.7917C68.1493 92.8752 68.1661 92.9578 68.1992 93.0349C68.2323 93.112 68.2809 93.1819 68.3423 93.2405C68.4037 93.2991 68.4765 93.3453 68.5566 93.3763C68.6366 93.4073 68.7223 93.4225 68.8085 93.4211Z" fill="#3A3768"/>
<path d="M74.3146 86.9955H69.7058V92.7917C69.7058 92.8746 69.6889 92.9566 69.6561 93.0332C69.6232 93.1097 69.5751 93.1792 69.5144 93.2377C69.4537 93.2962 69.3817 93.3425 69.3024 93.3739C69.2232 93.4054 69.1383 93.4214 69.0527 93.4211H69.0016V143.006H74.3146V86.9955Z" fill="#3A3768"/>
<path d="M69.0016 93.4211H69.0527C69.1383 93.4214 69.2232 93.4054 69.3024 93.374C69.3816 93.3425 69.4537 93.2962 69.5144 93.2377C69.575 93.1792 69.6232 93.1097 69.6561 93.0332C69.6889 92.9567 69.7058 92.8746 69.7058 92.7917V86.9955H69.0016V93.4211Z" fill="#3A3768"/>
<path d="M75.1296 137.084C75.1296 132.799 78.9915 129.328 83.7537 129.328C88.5159 129.328 92.3807 132.799 92.3807 137.084C92.3726 138.23 92.0945 139.359 91.5675 140.385C91.0405 141.412 90.2784 142.308 89.3394 143.006H112.454V118.923C112.719 118.684 113.045 118.519 113.399 118.447C113.753 118.374 114.12 118.396 114.462 118.511C115.04 118.687 115.526 119.072 115.819 119.585C116.907 121.38 118.617 122.537 120.545 122.537C123.833 122.537 126.508 119.165 126.508 115.004C126.508 110.843 123.844 107.468 120.545 107.468C118.994 107.468 117.583 108.218 116.524 109.444C116.123 109.915 115.783 110.431 115.51 110.98L115.456 111.013C115.075 111.398 114.571 111.646 114.025 111.716C113.48 111.786 112.926 111.675 112.454 111.401V86.9955H88.7459C88.5467 86.743 88.4152 86.4468 88.3632 86.1331C88.3112 85.8195 88.3402 85.4983 88.4477 85.1981C88.6303 84.6395 89.0279 84.1701 89.558 83.8872C91.4123 82.8346 92.6078 81.1773 92.6078 79.314C92.6078 76.1314 89.1235 73.5425 84.8243 73.5425C80.525 73.5425 77.0378 76.1232 77.0378 79.314C77.0378 80.8145 77.8131 82.1805 79.0796 83.2056C79.5661 83.5931 80.099 83.9226 80.667 84.1867L80.701 84.239C81.0734 84.5877 81.3205 85.0429 81.4058 85.5375C81.4912 86.0322 81.4104 86.5403 81.1753 86.9873H74.3146V143.006H78.1709C77.2318 142.308 76.4698 141.412 75.9427 140.385C75.4157 139.359 75.1376 138.23 75.1296 137.084Z" fill="#9F414B"/>
<path d="M69.8478 82.1969C69.8478 82.114 69.8309 82.0319 69.798 81.9554C69.7652 81.8788 69.717 81.8094 69.6563 81.7509C69.5956 81.6924 69.5236 81.6461 69.4444 81.6146C69.3652 81.5832 69.2803 81.5671 69.1947 81.5675H69.1436V85.668H69.8478V82.1969Z" fill="#3A3768"/>
<path d="M69.1181 53.4302H68.9761C68.8907 53.4302 68.8061 53.4465 68.7272 53.4781C68.6483 53.5097 68.5767 53.5561 68.5163 53.6145C68.4559 53.673 68.408 53.7423 68.3753 53.8187C68.3426 53.8951 68.3258 53.9769 68.3258 54.0595V59.5562C68.3266 59.7229 68.3953 59.8826 68.5171 60.0004C68.6389 60.1183 68.8039 60.1848 68.9761 60.1856H69.1436V53.4329L69.1181 53.4302Z" fill="#3A3768"/>
<path d="M68.9249 65.7921C68.7521 65.7921 68.5864 65.8583 68.464 65.9763C68.3416 66.0942 68.2725 66.2543 68.2717 66.4215V76.9173C68.2725 77.0845 68.3416 77.2446 68.464 77.3625C68.5864 77.4805 68.7521 77.5467 68.9249 77.5467H69.1435V65.7921H68.9249Z" fill="#3A3768"/>
<path d="M69.1434 81.6583H68.9589C68.7864 81.6583 68.621 81.7246 68.4991 81.8427C68.3771 81.9607 68.3086 82.1208 68.3086 82.2877V85.7588H69.1605L69.1434 81.6583Z" fill="#3A3768"/>
<path d="M69.1435 41.8295V53.4329C69.3112 53.4386 69.4701 53.5072 69.5867 53.6241C69.7032 53.741 69.7683 53.8971 69.7682 54.0596V59.5562C69.7676 59.7184 69.7023 59.8742 69.5859 59.991C69.4695 60.1077 69.311 60.1765 69.1435 60.1828V65.7949H69.2429C69.3283 65.7949 69.4128 65.8112 69.4917 65.8428C69.5706 65.8744 69.6423 65.9208 69.7027 65.9792C69.7631 66.0377 69.811 66.1071 69.8437 66.1834C69.8764 66.2598 69.8932 66.3416 69.8932 66.4243V76.9201C69.8932 77.0871 69.8247 77.2471 69.7027 77.3652C69.5808 77.4832 69.4154 77.5495 69.2429 77.5495H69.1378V81.672H69.1889C69.3617 81.672 69.5274 81.7382 69.6498 81.8562C69.7722 81.9741 69.8413 82.1342 69.8421 82.3014V85.7588H74.4509V42.1428C74.4509 40.3895 75.1703 38.7081 76.451 37.4681C77.7317 36.228 79.4688 35.5311 81.2803 35.5303H90.5405V36.6791C90.5405 38.1231 91.1332 39.5079 92.1882 40.5289C93.2432 41.55 94.674 42.1236 96.166 42.1236H112.457V38.5288H104.958C104.668 38.5273 104.39 38.4156 104.184 38.2176C103.979 38.0196 103.862 37.7513 103.859 37.4707V37.2398C103.859 36.9579 103.975 36.6878 104.181 36.4885C104.387 36.2892 104.666 36.1769 104.958 36.1762H112.443V31.1138H80.2126C77.2769 31.1152 74.4618 32.2448 72.3862 34.2541C70.3106 36.2635 69.1442 38.9882 69.1435 41.8295Z" fill="#3A3768"/>
<path d="M69.7683 59.5534V54.0568C69.7684 53.8943 69.7033 53.7382 69.5868 53.6213C69.4702 53.5044 69.3113 53.4359 69.1436 53.4302V60.1773C69.3106 60.171 69.4687 60.1026 69.585 59.9864C69.7013 59.8703 69.767 59.7152 69.7683 59.5534Z" fill="#3A3768"/>
<path d="M69.8989 76.9174V66.4215C69.8989 66.3388 69.8821 66.257 69.8494 66.1806C69.8167 66.1043 69.7688 66.0349 69.7084 65.9765C69.6481 65.918 69.5764 65.8717 69.4975 65.84C69.4186 65.8084 69.334 65.7921 69.2486 65.7921H69.1436V77.5467H69.2429C69.3288 77.5474 69.414 77.5317 69.4935 77.5004C69.5731 77.4691 69.6455 77.4228 69.7064 77.3643C69.7674 77.3058 69.8158 77.2362 69.8489 77.1595C69.8819 77.0828 69.8989 77.0005 69.8989 76.9174Z" fill="#3A3768"/>
<path d="M76.3421 79.8499C76.3421 75.5652 80.2041 72.0913 84.9691 72.0913C89.7341 72.0913 93.5932 75.5652 93.5932 79.8499C93.5819 80.9946 93.3011 82.1217 92.7721 83.1456C92.2432 84.1695 91.48 85.0632 90.5405 85.7588H112.435V61.3811C112.698 61.14 113.025 60.974 113.38 60.9013C113.735 60.8285 114.103 60.8519 114.445 60.9688C115.022 61.1464 115.507 61.5309 115.8 62.0434C116.887 63.8381 118.599 64.9951 120.525 64.9951C123.813 64.9951 126.488 61.6229 126.488 57.4592C126.488 53.2955 123.825 49.9261 120.525 49.9261C118.974 49.9261 117.563 50.6736 116.504 51.9021C116.102 52.3721 115.762 52.8881 115.49 53.4384L115.436 53.7655C115.436 53.7655 114.167 54.8153 112.435 53.8507V42.1153H96.1518C94.6623 42.1117 93.2351 41.5365 92.1832 40.5158C91.1313 39.4952 90.5405 38.1125 90.5405 36.6709V35.5221H81.286C80.3883 35.5225 79.4995 35.694 78.6703 36.027C77.8411 36.36 77.0879 36.8479 76.4537 37.4627C75.8194 38.0776 75.3166 38.8074 74.9739 39.6104C74.6312 40.4135 74.4554 41.274 74.4565 42.1428V85.7588H79.3806C78.4438 85.0618 77.6833 84.1675 77.1568 83.1436C76.6304 82.1198 76.3517 80.9934 76.3421 79.8499Z" fill="#9F414B"/>
<path d="M104.958 36.168C104.666 36.1687 104.387 36.281 104.181 36.4803C103.975 36.6796 103.859 36.9497 103.859 37.2316V37.4707C103.859 37.7528 103.975 38.0232 104.181 38.2229C104.387 38.4227 104.666 38.5356 104.958 38.537H112.443V36.1762L104.958 36.168Z" fill="#E6E8EC"/>
<path d="M155.618 69.3733V85.6874H157.534V68.7164H156.498C156.012 68.7164 155.618 69.0105 155.618 69.3733Z" fill="#3A3768"/>
<path d="M116.998 30.9956H114.726V35.9426H116.998V30.9956Z" fill="#3A3768"/>
<path d="M116.998 38.4161H114.726V41.989H116.998V38.4161Z" fill="#3A3768"/>
<path d="M116.998 35.9426H114.726V38.4161H116.998V35.9426Z" fill="#E6E8EC"/>
<path d="M157.926 69.4062H157.392V85.6681H158.577V70.0384C158.577 69.8712 158.508 69.7108 158.386 69.5924C158.264 69.4739 158.099 69.407 157.926 69.4062Z" fill="#3A3768"/>
<path d="M116.995 35.9426C117.6 36.0745 118.131 37.1409 118.131 37.1409V37.3717C118.131 37.3717 117.597 38.4353 116.995 38.4161V41.9889H129.828C131.32 41.9882 132.751 41.414 133.806 40.3925C134.861 39.371 135.453 37.9859 135.453 36.5417V35.3929H145.108C146.917 35.3966 148.65 36.0946 149.928 37.3337C151.206 38.5729 151.923 40.252 151.923 42.0027V74.0234C152.813 74.7113 153.531 75.5842 154.025 76.5774C154.518 77.5705 154.775 78.6585 154.775 79.7605C154.775 80.8626 154.518 81.9505 154.025 82.9437C153.531 83.9368 152.813 84.8097 151.923 85.4977V85.6818H155.899V69.5519C155.899 69.5412 155.901 69.5306 155.905 69.5207C155.91 69.5109 155.916 69.502 155.924 69.4945C155.932 69.4871 155.941 69.4813 155.952 69.4774C155.962 69.4736 155.973 69.4718 155.984 69.4722H157.319V41.3018C157.319 39.9483 157.044 38.608 156.509 37.3574C155.974 36.1068 155.189 34.9705 154.201 34.0134C153.212 33.0563 152.038 32.2972 150.745 31.7794C149.453 31.2616 148.068 30.9952 146.67 30.9956H116.714V35.9426H116.995ZM121.294 35.9179C121.568 35.9179 121.835 35.9964 122.063 36.1434C122.29 36.2905 122.467 36.4995 122.572 36.7441C122.677 36.9887 122.704 37.2578 122.651 37.5174C122.597 37.777 122.466 38.0155 122.272 38.2027C122.079 38.3899 121.832 38.5174 121.564 38.569C121.296 38.6207 121.018 38.5941 120.765 38.4928C120.512 38.3915 120.297 38.22 120.145 37.9999C119.993 37.7798 119.911 37.521 119.911 37.2563C119.911 36.9013 120.057 36.5609 120.317 36.3099C120.576 36.0589 120.928 35.9179 121.294 35.9179Z" fill="#3A3768"/>
<path d="M120.959 48.8433C125.42 48.8433 129.038 52.5837 129.038 57.1954C129.038 61.8071 125.42 65.5476 120.959 65.5476C119.747 65.5411 118.552 65.2637 117.468 64.7369C116.385 64.2101 115.441 63.4483 114.712 62.5107V85.6873H140.553C139.617 84.9882 138.857 84.0923 138.331 83.0672C137.805 82.0421 137.527 80.9146 137.518 79.7702C137.518 75.48 141.371 72.0034 146.127 72.0034C148.247 71.9895 150.302 72.7055 151.926 74.0234V42.0027C151.926 40.252 151.209 38.5729 149.931 37.3337C148.653 36.0946 146.92 35.3966 145.111 35.3929H135.456V36.5417C135.456 37.9859 134.863 39.371 133.808 40.3925C132.754 41.414 131.323 41.9882 129.831 41.9889H114.726V51.8829C115.454 50.947 116.395 50.1859 117.476 49.6588C118.557 49.1316 119.749 48.8526 120.959 48.8433Z" fill="#9F414B"/>
<path d="M116.995 38.4161C117.287 38.4165 117.567 38.3082 117.779 38.1138C117.99 37.9194 118.116 37.6537 118.131 37.3718V37.1409C118.098 36.8502 117.97 36.5772 117.766 36.3617C117.561 36.1462 117.291 35.9994 116.995 35.9426H116.711V38.4161H116.995Z" fill="#E6E8EC"/>
<path d="M121.516 38.5715C122.27 38.4531 122.782 37.7656 122.659 37.0359C122.537 36.3063 121.827 35.8108 121.073 35.9292C120.319 36.0477 119.807 36.7352 119.929 37.4648C120.052 38.1945 120.762 38.6899 121.516 38.5715Z" fill="#E6E8EC"/>
<path d="M149.998 141.773V139.024C150.587 138.24 150.904 137.295 150.904 136.325C150.904 135.356 150.587 134.411 149.998 133.626V141.773Z" fill="#3A3768"/>
<path d="M155.311 142.833H149.998V144.015H155.311V142.833Z" fill="#3A3768"/>
<path d="M147.854 140.904C147.324 141.188 146.927 141.657 146.744 142.215C146.636 142.515 146.606 142.837 146.658 143.151C146.711 143.466 146.842 143.762 147.042 144.015H149.998V142.833H148.862C149.274 142.515 149.654 142.159 149.998 141.772V139.024C149.433 139.794 148.701 140.435 147.854 140.904Z" fill="#9F414B"/>
<path d="M148.856 142.833H149.992V141.772C149.648 142.159 149.268 142.514 148.856 142.833Z" fill="#9F414B"/>
<path d="M150.904 136.331C150.897 135.362 150.581 134.42 149.998 133.632V139.027C150.579 138.24 150.896 137.298 150.904 136.331Z" fill="#3A3768"/>
<path d="M155.311 144.015V189.063C155.311 191.906 154.144 194.632 152.067 196.642C149.99 198.652 147.173 199.781 144.236 199.781H114.42V195.384H143.166C144.978 195.384 146.716 194.687 147.997 193.447C149.278 192.207 149.998 190.525 149.998 188.772V144.015H155.311Z" fill="#3A3768"/>
<path d="M146.744 142.215C146.927 141.657 147.324 141.188 147.854 140.904C148.701 140.436 149.432 139.796 149.998 139.027V133.632C148.689 131.81 146.102 130.568 143.12 130.568C138.818 130.568 135.334 133.148 135.334 136.339C135.334 137.84 136.109 139.206 137.376 140.231C137.862 140.618 138.395 140.948 138.963 141.212L138.997 141.264C139.369 141.613 139.616 142.068 139.701 142.563C139.786 143.057 139.706 143.565 139.471 144.012H114.42V166.549C115.139 165.617 116.071 164.859 117.144 164.335C118.216 163.81 119.4 163.533 120.602 163.525C125.029 163.525 128.615 167.263 128.615 171.872C128.615 176.481 125.029 180.222 120.602 180.222C119.4 180.214 118.216 179.937 117.144 179.412C116.071 178.888 115.139 178.13 114.42 177.198V195.39H143.166C144.975 195.39 146.71 194.695 147.991 193.459C149.272 192.222 149.993 190.544 149.998 188.794V144.015H147.05C146.849 143.763 146.716 143.467 146.663 143.152C146.609 142.838 146.637 142.516 146.744 142.215Z" fill="#9F414B"/>
<path d="M200.771 73.9685C202.356 73.2787 203.529 72.1161 203.929 70.6266C203.978 70.4458 204.014 70.2622 204.037 70.0769C204.108 69.9054 204.169 69.7301 204.219 69.552C204.619 68.0569 204.179 66.5096 203.134 65.1876L201.058 72.8829L200.771 73.9685Z" fill="url(#paint0_linear)"/>
<path d="M248.688 71.08C248.365 69.2413 242.367 65.259 242.367 65.259C242.367 65.259 239.718 63.8849 238.315 62.2963C237.418 61.2849 237.136 61.2959 237.051 61.4333C236.993 61.3975 236.927 61.3758 236.858 61.3701C236.801 61.3317 236.747 61.2959 236.696 61.2547C236.705 61.1771 236.687 61.0989 236.647 61.0313C236.607 60.9637 236.546 60.9101 236.472 60.8782C236.404 60.8397 236.336 60.7902 236.268 60.7435C235.813 60.0042 235.651 58.9571 235.597 58.0447C235.529 56.8931 234.178 57.1817 233.715 57.3109C233.397 56.7337 233.087 56.1346 232.795 55.5354C232.924 55.3409 233.032 55.1336 233.115 54.9171C233.95 53.1609 233.769 51.1464 234.132 49.2885C234.393 47.9446 234.939 46.5402 234.831 45.232C234.831 45.2017 234.831 45.1688 234.831 45.1358C234.831 45.1358 234.831 45.1495 234.831 45.155C234.801 44.8273 234.724 44.5053 234.601 44.1986C234.359 43.6105 233.939 43.0993 233.749 42.4919C233.445 41.6042 233.638 40.6258 233.385 39.7271C233.07 38.5893 232.076 37.7098 230.952 37.2069C229.827 36.7039 228.575 36.5308 227.342 36.3824C224.261 36.0086 220.987 35.786 218.176 37.0392C217.918 37.187 217.624 37.264 217.324 37.2618C217.047 37.1877 216.784 37.0698 216.546 36.9128C215.791 36.55 214.842 36.7809 214.166 37.2646C213.49 37.7483 213.03 38.4463 212.585 39.1224C212.139 39.7985 211.65 40.4966 210.952 40.9391C210.131 41.4695 209.046 41.6481 208.396 42.3627C208.106 42.7015 207.923 43.1135 207.868 43.55C207.868 43.55 207.868 43.5363 207.868 43.5308C207.865 43.5829 207.865 43.6352 207.868 43.6874C207.868 43.7286 207.868 43.7726 207.868 43.8138C207.868 43.8551 207.868 43.8825 207.868 43.9155C207.868 44.0337 207.868 44.1491 207.868 44.2646C207.959 44.9359 208.143 45.5923 208.416 46.2159C208.547 46.6811 208.804 47.1042 209.16 47.4416C210.148 48.2194 211.716 47.4856 212.908 47.9198C213.013 47.9556 213.113 48.0023 213.212 48.0463C213.212 48.0902 213.181 48.1342 213.167 48.1809C212.911 49.0207 212.782 49.8917 212.783 50.7671C212.783 55.9285 217.21 60.1114 222.671 60.1114C222.876 60.1114 223.077 60.1114 223.279 60.0894C223.307 60.1911 223.338 60.2955 223.364 60.3945C223.668 61.5349 223.764 62.7179 223.648 63.8904L223.588 63.3792C223.456 63.3177 223.318 63.2671 223.177 63.228C222.781 63.1007 222.366 63.0393 221.95 63.0466C220.607 63.0301 218.585 63.5523 216.427 66.0863C216.427 66.0863 213.672 67.5676 212.863 67.9249C212.796 67.9637 212.744 68.0213 212.712 68.0898C212.712 68.0898 209.029 73.4738 208.649 75.5213C208.268 77.5688 207.797 79.9186 207.797 79.9186C207.797 79.9186 206.877 82.5735 206.283 83.7498C205.69 84.926 205.147 86.0474 205.096 86.5585C205.045 87.0697 205.312 88.1911 204.176 88.9056C203.04 89.6202 202.756 91.5605 202.756 91.5605C202.756 91.5605 202.188 92.0772 201.385 92.7313H201.356L204.324 81.7188L204.855 81.8479C204.982 81.8784 205.115 81.8729 205.239 81.832C205.363 81.791 205.472 81.7164 205.553 81.6171C205.608 81.5497 205.648 81.472 205.67 81.3889L206.269 79.1573L206.51 78.2696L206.559 78.0882L206.908 76.7937L205.727 76.5189L204.344 76.1864L200.436 75.2327L200.777 73.9685L201.061 72.8966L202.847 66.2622L203.131 65.1931C201.995 63.7694 200.186 62.6124 197.963 62.0765C193.675 61.0458 189.523 62.7223 188.689 65.8197C188.639 66.0003 188.602 66.1839 188.578 66.3693C188.506 66.5392 188.446 66.7137 188.399 66.8915C188.254 67.4294 188.216 67.9888 188.285 68.5405C188.297 68.6303 188.311 68.7219 188.328 68.8153C188.498 69.6711 188.87 70.4771 189.416 71.1707C189.799 71.6662 190.245 72.1139 190.742 72.5036L190.762 72.5641C190.972 72.8975 191.1 73.2739 191.134 73.6634C191.134 73.7184 191.134 73.7761 191.134 73.8338C191.038 73.9996 190.924 74.1545 190.793 74.2955L164.594 67.9936L164.31 69.0627L158.409 91.0081C159.178 90.4358 160.042 89.9943 160.965 89.7026C161.327 89.5866 161.697 89.4947 162.072 89.4278L162.206 89.4058C163.262 89.2398 164.342 89.2828 165.38 89.5322C168.692 90.3293 170.98 93.0583 171.406 96.2684C171.461 96.6738 171.485 97.0826 171.477 97.4914C171.469 98.0129 171.412 98.5327 171.307 99.0442C169.887 103.216 165.525 105.736 161.288 104.717C160.101 104.427 158.999 103.875 158.068 103.106C157.137 102.336 156.402 101.368 155.921 100.278L155.637 101.35L149.549 123.873L172.752 129.457L173.002 128.377H173.039C172.352 127.553 171.854 126.597 171.577 125.573C171.301 124.549 171.254 123.479 171.438 122.435C171.438 122.399 171.46 122.366 171.474 122.331C171.503 122.251 171.534 122.174 171.565 122.097C171.724 121.721 171.914 121.358 172.133 121.012C172.247 120.833 172.366 120.66 172.494 120.492C172.573 120.388 172.656 120.286 172.741 120.187C173.15 119.708 173.616 119.278 174.13 118.906L174.294 118.791C174.482 118.662 174.675 118.538 174.862 118.423C174.979 118.357 175.098 118.291 175.217 118.23C176.591 117.528 178.127 117.173 179.681 117.2C180.428 117.209 181.171 117.301 181.896 117.474C184.135 117.995 186.09 119.31 187.374 121.16C187.544 121.408 187.699 121.665 187.84 121.93C188.258 122.715 188.53 123.565 188.643 124.441C188.732 125.141 188.713 125.85 188.586 126.544C188.034 128.081 186.98 129.402 185.582 130.306L185.298 131.34H185.329L185.287 131.37L185.003 132.401L190.302 133.676L197.807 105.904C199.832 105.676 200.868 104.805 200.868 104.678C200.868 104.552 203.302 103.246 204.65 102.889C205.321 102.713 206.096 102.587 206.712 102.46C205.985 105.953 205.292 109.331 205.355 109.529C205.375 109.606 205.505 109.485 205.704 109.221C205.684 109.323 205.676 109.426 205.678 109.529C205.678 109.581 205.755 109.543 205.855 109.436L205.84 109.502C205.84 109.502 201.626 117.392 201.297 118.296C200.967 119.2 201.376 121.515 202.674 122.281C202.926 122.435 203.15 122.627 203.339 122.85L203.185 123.144C202.702 124.092 202.274 125.148 202.35 125.805C202.452 126.636 202.251 127.476 201.782 128.179C201.782 128.179 198.133 139.093 198.216 142.234C198.298 145.375 196.918 152.268 196.918 152.268C196.918 152.268 195.419 156.71 196.31 157.974C197.202 159.238 198.216 164.754 198.216 164.754C198.216 164.754 198.906 166.018 198.863 167.09C198.821 168.162 199.513 170.113 199.513 170.113L201.785 178.039C201.785 178.039 201.541 180.147 202.393 181.64C203.245 183.132 203.162 182.673 202.756 185.278C202.35 187.884 203.245 190.294 204.702 191.05C205.27 191.347 205.298 191.8 205.122 192.243C204.75 192.103 204.44 192.847 204.256 193.449L204.068 193.622L204.193 193.653C204.114 193.927 204.068 194.158 204.068 194.158C204.068 194.158 200.26 197.223 200.016 198.333C199.772 199.443 197.097 200.018 197.097 200.018C197.097 200.018 193.045 201.09 191.985 201.625C191.682 201.759 191.42 201.966 191.224 202.226C191.028 202.487 190.905 202.792 190.867 203.112C190.819 203.617 190.869 204.126 191.014 204.613C191.418 206.182 197.091 206.336 199.817 205.916C202.543 205.495 208.163 203.962 208.163 203.962C208.163 203.962 214.081 203.412 215.83 202.736C217.58 202.06 216.194 200.284 216.194 200.284C216.194 200.284 216.194 200.227 216.194 200.119C216.236 199.479 216.359 197.157 215.938 196.547C215.623 196.074 215.632 194.898 215.677 194.15C216.861 192.089 214.32 185.905 214.32 185.905C214.32 185.905 214.805 179.859 214.481 178.974C214.158 178.089 212.778 170.586 212.778 170.586C212.778 170.586 211.926 167.178 212.252 166.604C212.579 166.029 212.048 164.38 212.048 164.38C212.048 164.38 210.659 162.547 210.784 161.97C210.909 161.393 210.378 160.362 210.378 160.362C210.378 160.362 214.513 154.387 214.146 153.277C213.78 152.167 214.311 150.366 214.311 150.366C214.311 150.366 214.831 149.52 215.447 148.506C216.214 147.264 217.151 145.777 217.457 145.312C217.855 144.721 218.812 142.207 219.346 140.758C219.573 140.143 219.726 139.719 219.726 139.719C219.726 139.719 220.374 150.988 220.942 152.128C221.51 153.269 222.362 162.355 222.362 162.355C222.677 163.161 222.815 164.022 222.768 164.883C222.688 166.298 224.065 172.466 224.065 172.466C224.065 172.466 224.673 176.83 224.267 177.979C223.861 179.128 224.188 187.598 224.188 187.598C224.188 187.598 221.958 189.247 221.39 190.509C220.822 191.77 221.47 195.219 221.47 195.219L221.731 195.337C221.522 195.816 221.367 196.316 221.268 196.827C221.189 197.555 219.971 200.85 220.093 201.309C220.215 201.768 219.567 203.187 219.485 203.912C219.403 204.638 218.392 205.712 218.309 206.097C218.181 206.441 218.032 206.778 217.864 207.106C217.643 207.609 217.467 208.129 217.338 208.661C216.932 210.272 221.754 210.538 221.754 210.538C228.887 211.803 230.185 206.633 230.185 206.633C230.185 206.633 231.077 202.038 231.4 201.686C231.44 201.621 231.465 201.548 231.474 201.473C231.484 201.398 231.477 201.321 231.454 201.249C231.269 200.467 230.919 199.731 230.426 199.086C230.199 198.83 230.185 198.174 230.222 197.585C230.428 197.566 230.633 197.529 230.832 197.476C233.709 196.673 232.536 192.037 232.536 192.037C232.536 192.037 234.481 188.975 234.481 187.788C234.481 186.6 235.171 182.962 235.171 182.962C237.645 178.671 236.671 168.255 237.077 167.412C237.483 166.568 236.225 163.429 235.211 162.011C234.197 160.593 234.603 156.765 235.211 155.654C235.819 154.544 234.603 150.707 234.603 150.707C234.603 150.707 235.779 143.287 235.739 142.127C235.7 140.967 236.753 137.57 236.753 137.57C236.753 137.57 237.807 135.809 237.562 135.273C237.318 134.737 238.372 133.349 238.091 132.744C237.809 132.14 238.332 130.254 238.86 129.144C239.13 128.575 239.465 127.008 239.712 125.615C239.74 125.461 239.769 125.307 239.794 125.156C240.976 125.879 242.066 126.418 242.452 126.272C243.176 125.997 242.024 122.424 241.234 120.198C241.37 120.099 241.427 120.025 241.37 119.992C240.885 119.684 241.424 118.304 241.424 118.304C244.29 116.672 243.316 115.446 242.398 114.732C241.481 114.017 242.075 111.983 241.802 111.159C241.529 110.334 242.129 106.616 242.614 103.909C242.715 103.321 242.71 102.72 242.6 102.133C243.12 101.367 243.656 100.564 244.128 99.822C245.746 97.2688 249.205 85.1157 249.205 85.1157L249.182 85.0525C249.52 84.4066 249.773 83.8817 249.909 83.5326C250.957 80.8943 249.012 72.9241 248.688 71.08ZM223.506 64.0827L223.58 64.0498C223.58 64.069 223.58 64.0882 223.58 64.1075L223.506 64.0827ZM207.783 194.45C207.606 194.451 207.431 194.417 207.269 194.351L207.783 194.45Z" fill="url(#paint1_linear)"/>
<path d="M177.762 105.874C180.099 106.731 185.531 106.825 187.945 106.825C188.677 106.825 189.132 106.825 189.132 106.825L190.679 103.774L189.132 101.232C189.132 101.232 187.712 100.853 185.826 100.523C183.043 100.039 179.235 99.6598 177.421 100.748C174.377 102.57 174.717 104.755 177.762 105.874Z" fill="#FEC2BE"/>
<path opacity="0.1" d="M187.942 106.825C188.674 106.825 189.129 106.825 189.129 106.825L190.676 103.774L189.132 101.232C189.132 101.232 187.712 100.853 185.826 100.523C187.357 101.611 191.037 103.98 187.942 106.825Z" fill="black"/>
<path d="M213.576 69.3843L212.894 68.6202C212.894 68.6202 209.376 74.007 209.007 76.0407C208.638 78.0745 208.155 80.4106 208.155 80.4106C208.155 80.4106 207.263 83.0544 206.684 84.2225C206.105 85.3905 205.582 86.5091 205.531 87.0175C205.48 87.526 205.741 88.6446 204.636 89.3564C203.532 90.0682 203.273 92.0003 203.273 92.0003C203.273 92.0003 199.281 95.76 197.179 95.8479C195.078 95.9359 189.041 96.9665 189.251 97.9834C189.461 99.0002 186.732 99.6076 185.628 99.8632C184.523 100.119 192.727 103.161 187.939 107.08C187.939 107.08 190.983 107.69 191.298 108.4C191.614 109.109 194.817 107.996 194.817 107.996C194.817 107.996 195.501 106.418 197.864 106.316C200.226 106.215 201.433 105.198 201.433 105.047C201.433 104.895 203.796 103.623 205.125 103.268C206.454 102.914 208.169 102.76 208.223 102.403C208.277 102.045 216.1 69.3705 216.1 69.3705L213.576 69.3843Z" fill="#4C4981"/>
<path opacity="0.05" d="M213.576 69.3843L212.894 68.6202C212.894 68.6202 209.376 74.007 209.007 76.0407C208.638 78.0745 208.155 80.4106 208.155 80.4106C208.155 80.4106 207.263 83.0544 206.684 84.2225C206.105 85.3905 205.582 86.5091 205.531 87.0175C205.48 87.526 205.741 88.6446 204.636 89.3564C203.532 90.0682 203.273 92.0003 203.273 92.0003C203.273 92.0003 199.281 95.76 197.179 95.8479C195.078 95.9359 189.041 96.9665 189.251 97.9834C189.461 99.0002 186.732 99.6076 185.628 99.8632C184.523 100.119 192.727 103.161 187.939 107.08C187.939 107.08 190.983 107.69 191.298 108.4C191.614 109.109 194.817 107.996 194.817 107.996C194.817 107.996 195.501 106.418 197.864 106.316C200.226 106.215 201.433 105.198 201.433 105.047C201.433 104.895 203.796 103.623 205.125 103.268C206.454 102.914 208.169 102.76 208.223 102.403C208.277 102.045 216.1 69.3705 216.1 69.3705L213.576 69.3843Z" fill="black"/>
<path d="M221.754 210.415C228.686 211.673 229.947 206.526 229.947 206.526C229.947 206.526 230.813 201.953 231.128 201.609C231.167 201.544 231.192 201.472 231.201 201.397C231.211 201.323 231.204 201.247 231.182 201.175C231 200.399 230.66 199.667 230.182 199.02C229.751 198.525 230.103 196.467 230.103 196.467L222.069 194.485C222.069 194.485 221.359 196.046 221.283 196.772C221.206 197.498 220.022 200.774 220.147 201.232C220.272 201.691 219.636 203.099 219.556 203.824C219.477 204.55 218.494 205.616 218.42 205.995C218.297 206.339 218.152 206.675 217.986 207.001C217.773 207.503 217.602 208.02 217.475 208.549C217.069 210.148 221.754 210.415 221.754 210.415Z" fill="#CA8496"/>
<path opacity="0.1" d="M221.754 210.415C228.686 211.673 229.947 206.526 229.947 206.526C229.947 206.526 230.813 201.953 231.128 201.609C231.167 201.544 231.192 201.472 231.201 201.397C231.211 201.323 231.204 201.247 231.182 201.175L229.512 205.803C229.512 205.803 228.135 208.584 223.015 208.167C220.101 207.927 218.667 207.405 217.972 206.999C217.758 207.5 217.587 208.018 217.46 208.546C217.069 210.148 221.754 210.415 221.754 210.415Z" fill="black"/>
<path opacity="0.1" d="M227.149 203.173C227.149 203.173 225.417 203.211 225.298 201.84L227.149 203.173Z" fill="black"/>
<path d="M173.263 128.366L174.362 128.638L174.121 129.718L173.102 129.468L173.263 128.366Z" fill="#9F414B"/>
<path opacity="0.1" d="M173.263 128.366L174.362 128.638L174.121 129.718L173.102 129.468L173.263 128.366Z" fill="black"/>
<path d="M205.879 78.0772L205.54 79.3663L206.687 79.649L207.026 78.3599L205.879 78.0772Z" fill="#3A3768"/>
<path d="M200.727 76.8067L200.388 78.0958L204.194 79.0334L204.533 77.7443L200.727 76.8067Z" fill="#3A3768"/>
<path d="M204.531 77.7473L204.192 79.0364L205.538 79.3679L205.877 78.0788L204.531 77.7473Z" fill="#3A3768"/>
<path d="M200.786 76.6399C200.695 76.6811 200.607 76.725 200.519 76.7608L200.74 76.8157L200.4 78.1047L198.716 77.6897C198.588 77.3974 198.537 77.0791 198.567 76.7631C198.597 76.4471 198.708 76.1432 198.889 75.8786C199.209 75.3779 199.719 75.0172 200.309 74.8727C200.669 74.7723 201.021 74.6456 201.362 74.4934L200.786 76.6399Z" fill="#9F414B"/>
<path d="M204.804 82.2052L205.318 82.3344C205.401 82.355 205.487 82.3595 205.572 82.3477C205.657 82.3359 205.738 82.308 205.812 82.2656C205.886 82.2232 205.95 82.1672 206.001 82.1007C206.052 82.0342 206.089 81.9586 206.11 81.8782L206.684 79.6575L205.548 79.3827L204.804 82.2052Z" fill="#3A3768"/>
<path d="M204.412 71.1679C204.02 72.652 202.881 73.8091 201.342 74.4934L203.358 66.8256C204.381 68.142 204.81 69.6838 204.412 71.1679Z" fill="#3A3768"/>
<path d="M204.088 82.0293C203.922 81.9879 203.779 81.8842 203.691 81.741C203.603 81.5978 203.577 81.4267 203.62 81.2653L204.205 79.0419L200.399 78.1047L188.794 122.226C189.638 123.816 189.852 125.65 189.396 127.382C188.941 129.114 187.847 130.625 186.32 131.631L186.051 132.659L191.199 133.937L204.804 82.2162L204.088 82.0293Z" fill="#3A3768"/>
<path d="M203.62 81.2653C203.578 81.4267 203.603 81.5978 203.691 81.741C203.779 81.8842 203.922 81.9879 204.088 82.0293L204.804 82.2052L205.548 79.3744L204.205 79.0419L203.62 81.2653Z" fill="#3A3768"/>
<path d="M198.886 75.8785C199.208 75.3794 199.717 75.0193 200.306 74.8726C200.665 74.7715 201.016 74.6448 201.356 74.4934L203.375 66.8255C202.112 65.2718 200.341 64.1789 198.352 63.7254C194.186 62.6976 190.148 64.3658 189.339 67.4494C188.956 68.9033 189.359 70.4121 190.327 71.7093C190.698 72.2012 191.13 72.647 191.613 73.0368L191.633 73.0972C191.907 73.5256 192.031 74.0278 191.987 74.5297C191.943 75.0315 191.733 75.5063 191.389 75.884L165.929 69.6096L160.184 91.4533C161.116 90.723 162.209 90.2106 163.379 89.9561C164.548 89.7015 165.763 89.7116 166.928 89.9857C171.219 91.0438 173.743 95.5236 172.568 99.9896C171.392 104.456 166.974 107.223 162.683 106.179C161.52 105.882 160.444 105.329 159.539 104.563C158.634 103.797 157.925 102.838 157.466 101.762L151.568 124.178L174.121 129.732C173.39 128.833 172.879 127.785 172.629 126.667C172.379 125.549 172.396 124.39 172.678 123.279C173.772 119.129 178.398 116.683 183.015 117.821C184.247 118.113 185.401 118.657 186.398 119.417C187.395 120.177 188.212 121.135 188.794 122.226L200.399 78.1047L198.733 77.6897C198.602 77.3989 198.548 77.0815 198.574 76.7655C198.601 76.4495 198.708 76.1448 198.886 75.8785Z" fill="#9F414B"/>
<path d="M200.738 76.8158L200.786 76.6399C200.698 76.6811 200.61 76.7251 200.519 76.7636L200.738 76.8158Z" fill="#9F414B"/>
<g opacity="0.1">
<path opacity="0.1" d="M205.886 78.0854L204.543 77.7529L200.74 76.8157L200.789 76.6398L201.356 74.4934C201.016 74.6455 200.664 74.7723 200.303 74.8726C199.713 75.0172 199.204 75.3778 198.883 75.8785C198.8 76.0169 198.729 76.1622 198.673 76.3128C198.728 76.1622 198.798 76.0169 198.88 75.8785C199.203 75.3794 199.711 75.0193 200.3 74.8726C200.66 74.7716 201.011 74.6448 201.351 74.4934L203.37 66.8255C202.106 65.2718 200.335 64.1789 198.346 63.7254C194.181 62.6976 190.143 64.3658 189.333 67.4494C188.95 68.9033 189.353 70.4121 190.321 71.7093C190.692 72.2012 191.124 72.647 191.608 73.0368L191.628 73.0972C191.901 73.5256 192.025 74.0278 191.981 74.5297C191.937 75.0315 191.728 75.5063 191.383 75.884L165.923 69.6096L160.178 91.4533C161.111 90.7222 162.205 90.2093 163.376 89.9547C164.546 89.7002 165.762 89.7108 166.928 89.9857C171.219 91.0438 173.743 95.5236 172.568 99.9896C171.392 104.456 166.974 107.223 162.683 106.179C161.52 105.882 160.444 105.329 159.539 104.563C158.634 103.797 157.925 102.838 157.466 101.762L151.568 124.178L174.121 129.732C173.39 128.833 172.879 127.785 172.629 126.667C172.379 125.549 172.396 124.39 172.678 123.279C173.772 119.129 178.398 116.683 183.015 117.821C184.247 118.113 185.401 118.657 186.398 119.417C187.395 120.177 188.212 121.135 188.794 122.226C189.638 123.816 189.852 125.65 189.396 127.382C188.941 129.114 187.847 130.625 186.32 131.631L186.051 132.659L191.199 133.937L204.804 82.2162L205.318 82.3453C205.401 82.3659 205.487 82.3705 205.572 82.3587C205.657 82.3469 205.738 82.319 205.812 82.2766C205.886 82.2342 205.95 82.1781 206.001 82.1117C206.052 82.0452 206.089 81.9695 206.11 81.8891L206.684 79.6575L207.022 78.3685L205.886 78.0854ZM200.649 76.7113C200.607 76.7305 200.564 76.7525 200.522 76.769L200.649 76.7113ZM198.718 77.6979L200.402 78.1129L198.718 77.6979Z" fill="black"/>
<path opacity="0.1" d="M204.412 71.1679C204.801 69.6838 204.372 68.1448 203.358 66.8256L201.342 74.4934C202.89 73.8091 204.029 72.6493 204.412 71.1679Z" fill="black"/>
</g>
<path d="M206.158 77.0145L205.818 78.3036L206.966 78.5863L207.305 77.2972L206.158 77.0145Z" fill="#3A3768"/>
<path d="M201.006 75.744L200.667 77.0331L204.473 77.9706L204.812 76.6815L201.006 75.744Z" fill="#3A3768"/>
<path d="M204.81 76.6792L204.471 77.9683L205.817 78.2998L206.156 77.0107L204.81 76.6792Z" fill="#3A3768"/>
<path d="M201.067 75.5735L200.8 75.6972L201.019 75.7494L200.681 77.0466L198.997 76.6316C198.867 76.3399 198.815 76.0214 198.844 75.7051C198.874 75.3888 198.985 75.0848 199.167 74.8205C199.489 74.3207 199.997 73.9604 200.587 73.8146C200.947 73.7142 201.298 73.5874 201.638 73.4353L201.067 75.5735Z" fill="#9F414B"/>
<path d="M205.082 81.1416L205.599 81.268C205.683 81.2898 205.77 81.2953 205.856 81.2841C205.941 81.2729 206.024 81.2453 206.099 81.2028C206.173 81.1603 206.238 81.1038 206.29 81.0367C206.342 80.9695 206.379 80.8931 206.4 80.8118L206.985 78.5911L205.849 78.3163L205.082 81.1416Z" fill="#3A3768"/>
<path d="M204.696 70.1043C204.307 71.5856 203.168 72.7427 201.626 73.427L203.645 65.7592C204.662 67.0756 205.091 68.6174 204.696 70.1043Z" fill="#3A3768"/>
<path d="M204.369 80.9657C204.286 80.9452 204.209 80.9091 204.14 80.8595C204.072 80.8098 204.014 80.7476 203.971 80.6764C203.927 80.6052 203.899 80.5263 203.887 80.4444C203.875 80.3625 203.879 80.2791 203.901 80.199L204.469 77.9783L200.681 77.0466L189.078 121.163C189.923 122.752 190.138 124.585 189.683 126.318C189.227 128.05 188.132 129.561 186.604 130.565L186.334 131.593L191.486 132.862L205.088 81.1416L204.369 80.9657Z" fill="#3A3768"/>
<path d="M203.901 80.1989C203.88 80.279 203.875 80.3625 203.887 80.4444C203.899 80.5263 203.927 80.6051 203.971 80.6763C204.014 80.7476 204.072 80.8098 204.14 80.8594C204.209 80.9091 204.287 80.9452 204.369 80.9657L205.082 81.1416L205.832 78.3081L204.486 77.9783L203.901 80.1989Z" fill="#3A3768"/>
<path d="M199.167 74.8122C199.489 74.3124 199.998 73.9521 200.587 73.8063C200.947 73.7059 201.298 73.5791 201.638 73.427L203.654 65.7592C202.391 64.2057 200.621 63.1128 198.633 62.659C194.465 61.6339 190.429 63.2994 189.617 66.3858C189.237 67.8369 189.637 69.3457 190.608 70.6429C190.979 71.1357 191.411 71.5824 191.895 71.9731L191.915 72.0308C192.187 72.4595 192.311 72.9616 192.267 73.4632C192.223 73.9648 192.014 74.4396 191.67 74.8177L166.207 68.546L160.454 90.3869C161.387 89.6546 162.483 89.1413 163.655 88.8872C164.828 88.6331 166.045 88.645 167.212 88.9221C171.5 89.9774 174.027 94.4572 172.852 98.926C171.676 103.395 167.255 106.157 162.953 105.101C161.791 104.803 160.717 104.249 159.814 103.482C158.91 102.716 158.202 101.757 157.745 100.682L151.849 123.097L174.399 128.655C173.668 127.756 173.159 126.707 172.909 125.589C172.66 124.471 172.677 123.312 172.96 122.202C174.05 118.049 178.679 115.606 183.296 116.743C184.531 117.035 185.686 117.581 186.684 118.344C187.682 119.106 188.498 120.068 189.078 121.163L200.681 77.0465L198.997 76.6315C198.867 76.3384 198.815 76.0186 198.845 75.701C198.874 75.3834 198.985 75.078 199.167 74.8122Z" fill="#9F414B"/>
<path d="M201.019 75.7521L201.064 75.5735C200.976 75.6147 200.888 75.6587 200.8 75.6972L201.019 75.7521Z" fill="#9F414B"/>
<path d="M197.029 158.122C197.881 159.378 198.88 164.869 198.88 164.869C198.88 164.869 199.55 166.125 199.511 167.194C199.471 168.264 200.141 170.218 200.141 170.218L202.347 178.108C202.347 178.108 202.109 180.205 202.938 181.681C203.767 183.157 203.685 182.709 203.293 185.3C202.901 187.892 203.764 190.294 205.181 191.072C206.598 191.85 204.551 193.625 204.551 193.625C204.551 193.625 213.61 195.989 215.501 194.54C217.392 193.092 214.516 185.924 214.516 185.924C214.516 185.924 214.99 179.903 214.675 179.026C214.359 178.149 213.019 170.679 213.019 170.679C213.019 170.679 212.193 167.285 212.508 166.713C212.823 166.142 212.312 164.515 212.312 164.515C212.312 164.515 210.972 162.684 211.091 162.113C211.21 161.541 210.696 160.513 210.696 160.513C210.696 160.513 214.706 154.549 214.351 153.431C213.996 152.312 214.507 150.534 214.507 150.534L215.626 148.682C216.373 147.445 217.276 145.964 217.58 145.502C217.966 144.914 218.897 142.413 219.417 140.97L219.786 139.937C219.786 139.937 220.416 151.144 220.967 152.288C221.518 153.431 222.345 162.456 222.345 162.456C222.651 163.26 222.785 164.116 222.739 164.971C222.66 166.381 224 172.518 224 172.518C224 172.518 224.591 176.863 224.196 178.015C223.801 179.166 224.117 187.584 224.117 187.584C224.117 187.584 221.95 189.233 221.399 190.481C220.848 191.729 221.478 195.153 221.478 195.153C221.478 195.153 227.78 198.204 230.565 197.404C233.351 196.604 232.218 191.99 232.218 191.99C232.218 191.99 234.109 188.942 234.109 187.76C234.109 186.578 234.797 182.97 234.797 182.97C237.199 178.702 236.253 168.335 236.648 167.497C237.043 166.658 235.819 163.531 234.836 162.121C233.854 160.711 234.246 156.899 234.836 155.8C235.427 154.701 234.229 150.878 234.229 150.878C234.229 150.878 235.364 143.482 235.33 142.339C235.296 141.195 236.316 137.804 236.316 137.804C236.316 137.804 237.338 136.05 237.102 135.514C236.867 134.979 237.889 133.61 237.614 133C237.338 132.39 237.852 130.526 238.363 129.427C238.624 128.861 238.951 127.3 239.215 125.917C239.456 124.601 239.635 123.444 239.635 123.444L233.135 118.373L216.909 114.251L210.807 112.346L204.858 121.416C204.437 122.077 204.051 122.758 203.702 123.458C203.233 124.4 202.816 125.45 202.89 126.104C202.989 126.93 202.795 127.763 202.339 128.468C202.339 128.468 198.792 139.329 198.872 142.457C198.951 145.584 197.611 152.441 197.611 152.441C197.611 152.441 196.154 156.861 197.029 158.122Z" fill="#CEDDF9"/>
<path d="M221.013 69.7636C221.263 69.6646 238.394 62.8158 236.035 61.4554C234.635 60.6474 232.911 57.2229 231.73 54.5433C230.906 52.6717 230.347 51.1629 230.347 51.1629C230.347 51.1629 216.597 48.7993 221.518 56.9564C222.294 58.2076 222.878 59.561 223.253 60.9744C224.656 66.5315 221.126 69.6619 221.013 69.7636Z" fill="#FEC2BE"/>
<path opacity="0.1" d="M221.518 56.9564C222.294 58.2076 222.878 59.561 223.253 60.9744C224.998 60.8569 226.676 60.2806 228.107 59.3075C229.537 58.3344 230.666 57.0017 231.372 55.453C231.508 55.1564 231.628 54.8527 231.73 54.5433C230.906 52.6717 230.347 51.1629 230.347 51.1629C230.347 51.1629 216.597 48.7993 221.518 56.9564Z" fill="black"/>
<path d="M212.971 51.3909C212.972 53.744 213.895 56.0092 215.553 57.7298C217.211 59.4504 219.482 60.4984 221.908 60.6625C224.333 60.8267 226.732 60.0946 228.622 58.6141C230.512 57.1336 231.751 55.0146 232.09 52.6846C232.429 50.3545 231.843 47.9867 230.45 46.0585C229.056 44.1303 226.959 42.7852 224.581 42.2945C222.203 41.8037 219.722 42.2037 217.637 43.414C215.552 44.6242 214.018 46.5545 213.346 48.8158C213.097 49.6529 212.971 50.5198 212.971 51.3909Z" fill="#FEC2BE"/>
<path opacity="0.1" d="M203.702 123.455C204.707 124.34 205.093 126.025 205.093 126.025C205.093 126.025 209.822 129.149 209.506 127.168C209.191 125.186 211.948 117.18 211.948 117.18L211.633 128.083C211.633 128.083 226.755 127.396 227.859 126.33C228.964 125.263 235.421 123.219 235.421 123.219C235.421 123.219 237.409 124.755 239.215 125.92C239.457 124.604 239.635 123.447 239.635 123.447L233.135 118.376L216.909 114.253L210.807 112.349L204.858 121.418C204.437 122.078 204.052 122.758 203.702 123.455Z" fill="black"/>
<path d="M203.205 122.595C204.466 123.356 204.937 125.414 204.937 125.414C204.937 125.414 209.663 128.539 209.347 126.558C209.032 124.576 211.79 116.57 211.79 116.57L211.474 127.473C211.474 127.473 226.598 126.791 227.697 125.719C228.796 124.648 235.26 122.595 235.26 122.595C235.26 122.595 240.854 126.94 241.876 126.558C242.898 126.176 240.064 118.783 240.064 118.783L237.154 75.4828C237.154 75.4828 237.94 62.5987 236.759 62.1397C236.577 62.0683 236.408 61.967 236.262 61.8401C235.484 61.1641 235.251 59.7899 235.183 58.6356C235.106 57.2614 233.215 57.9485 233.215 57.9485L234.317 59.3227L224.557 65.0667L224.472 65.1161C224.092 64.9224 223.7 64.7508 223.299 64.6022C222.447 64.2807 221.285 63.9783 220.533 64.2779C220.112 64.4849 219.756 64.7959 219.499 65.1794C218.943 65.989 218.496 66.8647 218.17 67.7848L214.635 73.5755C214.635 73.5755 212.823 81.2708 212.823 81.5814C212.823 81.8919 212.272 88.9002 211.642 89.6614C211.011 90.4227 210.381 94.2347 210.617 95.378C210.852 96.5213 210.222 100.792 210.222 100.792C207.624 102.851 206.286 109.862 206.286 109.862C206.286 109.862 202.18 117.722 201.856 118.629C201.533 119.536 201.944 121.844 203.205 122.595Z" fill="white"/>
<path opacity="0.1" d="M224.557 65.3689C225.514 66.7431 228.28 68.6669 228.28 68.6669L236.262 62.1396C235.484 61.4635 235.251 60.0894 235.183 58.9323C235.106 57.5581 233.215 58.248 233.215 58.248L233.445 58.5228C233.555 58.6598 233.633 58.8176 233.676 58.986C233.718 59.1544 233.723 59.3296 233.691 59.5C233.658 59.6705 233.589 59.8324 233.487 59.9751C233.386 60.1179 233.254 60.2383 233.101 60.3285L224.557 65.3689Z" fill="black"/>
<path d="M224.557 65.0639C225.514 66.4381 228.28 68.3619 228.28 68.3619L236.262 61.8346C235.484 61.1585 235.251 59.7844 235.183 58.6301C235.106 57.2559 233.215 57.943 233.215 57.943L233.445 58.2178C233.555 58.3546 233.633 58.5122 233.675 58.6804C233.718 58.8486 233.723 59.0236 233.69 59.1938C233.658 59.364 233.589 59.5257 233.487 59.6682C233.386 59.8107 233.254 59.9308 233.101 60.0207L224.557 65.0639Z" fill="white"/>
<path opacity="0.1" d="M220.865 66.0918C221.896 67.2846 223.358 68.6395 223.29 67.9607C223.222 67.2818 224.162 65.784 224.761 65.1134C223.825 64.8263 222.817 64.8535 221.899 65.1903C221.478 65.3964 221.121 65.7076 220.865 66.0918Z" fill="black"/>
<path d="M220.709 65.6327C221.74 66.8282 223.199 68.1804 223.131 67.5043C223.063 66.8282 223.906 65.7261 224.506 65.0556C223.654 64.734 222.495 64.4317 221.74 64.734C221.32 64.9393 220.964 65.2496 220.709 65.6327Z" fill="white"/>
<path d="M223.29 71.976C223.638 71.976 223.921 71.7028 223.921 71.3659C223.921 71.0289 223.638 70.7557 223.29 70.7557C222.942 70.7557 222.66 71.0289 222.66 71.3659C222.66 71.7028 222.942 71.976 223.29 71.976Z" fill="#FF718D"/>
<path d="M218.511 88.4412C218.859 88.4412 219.141 88.168 219.141 87.8311C219.141 87.4941 218.859 87.2209 218.511 87.2209C218.163 87.2209 217.881 87.4941 217.881 87.8311C217.881 88.168 218.163 88.4412 218.511 88.4412Z" fill="#FF718D"/>
<path d="M213.104 105.112C213.452 105.112 213.735 104.839 213.735 104.502C213.735 104.165 213.452 103.892 213.104 103.892C212.756 103.892 212.474 104.165 212.474 104.502C212.474 104.839 212.756 105.112 213.104 105.112Z" fill="#FF718D"/>
<path d="M212.945 123.254C213.294 123.254 213.576 122.981 213.576 122.644C213.576 122.307 213.294 122.034 212.945 122.034C212.597 122.034 212.315 122.307 212.315 122.644C212.315 122.981 212.597 123.254 212.945 123.254Z" fill="#FF718D"/>
<path d="M220.507 79.7509C220.856 79.7509 221.138 79.4777 221.138 79.1408C221.138 78.8038 220.856 78.5306 220.507 78.5306C220.159 78.5306 219.877 78.8038 219.877 79.1408C219.877 79.4777 220.159 79.7509 220.507 79.7509Z" fill="#FF718D"/>
<path d="M216.253 96.6751C216.602 96.6751 216.884 96.4019 216.884 96.065C216.884 95.728 216.602 95.4548 216.253 95.4548C215.905 95.4548 215.623 95.728 215.623 96.065C215.623 96.4019 215.905 96.6751 216.253 96.6751Z" fill="#FF718D"/>
<path d="M212.105 113.294C212.453 113.294 212.735 113.021 212.735 112.684C212.735 112.347 212.453 112.074 212.105 112.074C211.757 112.074 211.474 112.347 211.474 112.684C211.474 113.021 211.757 113.294 212.105 113.294Z" fill="#FF718D"/>
<path d="M213.05 125.288C213.399 125.288 213.681 125.015 213.681 124.678C213.681 124.341 213.399 124.068 213.05 124.068C212.702 124.068 212.42 124.341 212.42 124.678C212.42 125.015 212.702 125.288 213.05 125.288Z" fill="#FF718D"/>
<path opacity="0.1" d="M236.262 62.2057C236.262 62.2057 236.157 61.2905 237.52 62.868C238.883 64.4455 241.459 65.8142 241.459 65.8142C241.459 65.8142 247.289 69.78 247.604 71.6077C247.919 73.4353 249.807 81.367 248.811 84.0081C247.814 86.6493 240.192 99.3081 240.192 99.3081C240.192 99.3081 242.18 101.597 241.717 104.291C241.254 106.984 240.666 110.694 240.928 111.508C241.189 112.321 240.612 114.352 241.496 115.064C242.379 115.776 243.333 116.988 240.55 118.621C240.55 118.621 240.025 119.995 240.496 120.3C240.967 120.605 233.513 123.754 230.557 122.078C227.601 120.401 222.322 106.984 222.208 103.986C222.095 100.987 223.836 91.0686 224.781 88.738C225.727 86.4074 228.564 77.3022 229.771 75.2712C230.977 73.2402 236.262 62.2057 236.262 62.2057Z" fill="black"/>
<path d="M236.574 62.2057C236.574 62.2057 236.469 61.2905 237.835 62.868C239.201 64.4455 241.774 65.8142 241.774 65.8142C241.774 65.8142 247.604 69.78 247.919 71.6077C248.234 73.4353 250.122 81.367 249.126 84.0081C248.129 86.6493 240.513 99.3081 240.513 99.3081C240.513 99.3081 242.501 101.597 242.038 104.291C241.575 106.984 240.987 110.694 241.248 111.508C241.51 112.321 240.933 114.352 241.816 115.064C242.699 115.776 243.654 116.988 240.871 118.621C240.871 118.621 240.345 119.995 240.817 120.3C241.288 120.605 233.834 123.754 230.878 122.078C227.922 120.401 222.643 106.984 222.529 103.986C222.416 100.987 224.156 91.0686 225.102 88.738C226.048 86.4074 228.884 77.3022 230.091 75.2712C231.298 73.2402 236.574 62.2057 236.574 62.2057Z" fill="#4C4981"/>
<path opacity="0.1" d="M238.676 70.8573C238.676 70.8573 234.161 75.6861 234.317 78.8879C234.317 78.8879 234.266 73.7018 238.676 70.8573Z" fill="black"/>
<path opacity="0.1" d="M232.428 78.7864C232.428 78.9375 229.381 89.9144 229.54 91.2885C229.699 92.6627 228.646 96.7247 228.646 96.7247L227.226 96.3702C227.226 96.3702 228.328 90.7279 228.538 88.6446C228.748 86.5614 232.428 78.7864 232.428 78.7864Z" fill="black"/>
<path opacity="0.1" d="M231.219 110.093C231.324 110.244 238.415 118.019 236.418 118.579C234.422 119.14 231.219 110.093 231.219 110.093Z" fill="black"/>
<path opacity="0.1" d="M237.049 108.103C237.205 108.204 239.888 113.693 240.198 112.225C240.507 110.758 237.889 116.24 237.469 112.176L237.049 108.103Z" fill="black"/>
<path opacity="0.1" d="M223.438 63.9453C223.438 63.9453 220.51 62.2166 216.833 66.6386C216.833 66.6386 214.155 68.1117 213.368 68.469C212.582 68.8263 211.687 78.2778 211.687 78.2778C211.687 78.2778 209.955 82.3426 210.427 84.6814C210.898 87.0202 209.064 95.0481 209.064 95.0481C209.064 95.0481 206.014 109.477 206.116 109.889C206.218 110.301 209.214 105.365 209.163 102.925C209.112 100.484 211.682 92.8632 212.051 92.4042C212.42 91.9452 214.939 78.8879 214.939 78.8879C214.939 78.8879 216.986 73.3473 218.298 71.5169C219.61 69.6865 221.24 66.2319 221.922 65.6217C222.412 65.2108 222.96 64.8685 223.549 64.6049L223.438 63.9453Z" fill="black"/>
<path d="M223.475 63.9453C223.475 63.9453 220.192 62.2166 216.518 66.6386C216.518 66.6386 213.837 68.1117 213.05 68.469C212.264 68.8263 211.369 78.2778 211.369 78.2778C211.369 78.2778 209.637 82.3426 210.108 84.6814C210.58 87.0202 208.745 95.0481 208.745 95.0481C208.745 95.0481 205.698 109.482 205.803 109.889C205.909 110.296 208.902 105.365 208.85 102.925C208.799 100.484 211.369 92.8632 211.738 92.4042C212.108 91.9452 214.635 78.8879 214.635 78.8879C214.635 78.8879 216.682 73.3473 217.994 71.5169C219.306 69.6865 220.936 66.2319 221.618 65.6217C222.299 65.0116 223.56 64.6049 223.56 64.6049L223.475 63.9453Z" fill="#4C4981"/>
<path d="M209.061 95.7077C209.061 95.7077 202.813 91.7446 199.792 93.7014C196.77 95.6582 191.841 98.4285 196.694 100.435C201.547 102.441 208.271 102.056 208.271 102.056L209.061 95.7077Z" fill="#FEC2BE"/>
<path opacity="0.1" d="M213.405 133.953C214.337 135.877 215.109 145.601 215.626 148.682C216.373 147.445 217.276 145.964 217.58 145.502C217.966 144.914 218.897 142.413 219.417 140.97C218.824 139.574 217.185 135.572 217.185 134.099C217.185 132.307 214.192 130.059 214.192 130.059C214.192 130.059 212.304 131.667 213.405 133.953Z" fill="black"/>
<path opacity="0.1" d="M233.49 163.798C233.49 163.798 226.559 160.939 224.511 162.973C222.464 165.007 233.49 163.798 233.49 163.798Z" fill="black"/>
<path opacity="0.1" d="M229.592 164.941C229.592 164.941 236.603 168.753 234.2 169.39C231.798 170.028 229.592 164.941 229.592 164.941Z" fill="black"/>
<path opacity="0.1" d="M208.64 161.626C208.64 161.626 211.633 161.816 210.492 162.388C209.35 162.959 208.64 161.626 208.64 161.626Z" fill="black"/>
<path opacity="0.1" d="M204.898 162.503C204.937 162.693 213.601 165.4 211.909 166.626C210.216 167.851 204.898 162.503 204.898 162.503Z" fill="black"/>
<path opacity="0.1" d="M232.465 185.831C231.168 185.638 223.921 182.398 226.755 184.732C229.589 187.065 232.465 185.831 232.465 185.831Z" fill="black"/>
<path opacity="0.1" d="M228.882 188.384C228.882 188.384 228.251 190.748 225.849 190.443C223.446 190.137 228.882 188.384 228.882 188.384Z" fill="black"/>
<path opacity="0.1" d="M230.892 193.185C230.458 193.073 225.298 190.786 225.181 191.852C225.065 192.919 230.103 194.788 230.497 194.216C230.724 193.914 230.86 193.557 230.892 193.185Z" fill="black"/>
<path opacity="0.1" d="M214.192 190.443C213.561 190.404 207.661 188.574 206.474 190.212L214.192 190.443Z" fill="black"/>
<path opacity="0.1" d="M208.836 191.509C208.836 191.509 207.811 190.632 206.789 191.088C205.767 191.545 208.836 191.509 208.836 191.509Z" fill="black"/>
<path opacity="0.1" d="M221.913 200.963C221.847 201.287 221.685 201.585 221.447 201.822C221.209 202.058 220.905 202.223 220.573 202.296L221.913 200.963Z" fill="black"/>
<path d="M191.861 204.544C192.255 206.108 197.77 206.259 200.408 205.841C203.046 205.424 208.521 203.896 208.521 203.896C208.521 203.896 214.271 203.362 215.964 202.678C217.656 201.994 216.319 200.238 216.319 200.238C216.319 200.238 216.319 200.177 216.319 200.073C216.359 199.435 216.478 197.124 216.072 196.5C215.6 195.774 215.876 193.411 215.876 193.411C215.876 193.411 207.723 194.936 207.564 194.213C207.405 193.49 206.144 192.46 205.556 192.232C204.969 192.004 204.531 194.136 204.531 194.136C204.531 194.136 200.84 197.187 200.593 198.292C200.346 199.397 197.753 199.968 197.753 199.968C197.753 199.968 193.814 201.035 192.789 201.568C192.492 201.703 192.235 201.911 192.045 202.17C191.855 202.43 191.738 202.733 191.704 203.049C191.661 203.552 191.714 204.059 191.861 204.544Z" fill="#CA8496"/>
<path opacity="0.1" d="M191.861 204.544C192.255 206.108 197.77 206.259 200.408 205.841C203.046 205.424 208.521 203.896 208.521 203.896C208.521 203.896 214.272 203.362 215.964 202.678C217.656 201.994 216.319 200.238 216.319 200.238C216.319 200.238 216.319 200.177 216.319 200.073L208.084 201.84C208.084 201.84 204.026 203.516 201.428 203.516C199.156 203.516 194.073 204.415 191.716 203.052C191.67 203.554 191.719 204.06 191.861 204.544Z" fill="black"/>
<path opacity="0.1" d="M203.006 198.523C203.006 198.523 203.401 201.037 204.977 201.876L203.006 198.523Z" fill="black"/>
<path opacity="0.1" d="M213.346 48.8158C213.496 48.8926 213.652 48.956 213.814 49.0055C214.553 49.1978 215.274 48.7141 215.93 48.3294C216.586 47.9446 217.492 47.6588 218.06 48.159C218.801 48.8103 218.264 50.201 219.028 50.8303C219.511 51.2288 220.277 51.0914 220.814 51.4185C221.351 51.7455 221.513 52.4628 221.649 53.0812C221.785 53.6996 222.058 54.4059 222.683 54.5873C223.307 54.7687 223.889 54.3702 224.506 54.3922C224.633 54.3922 224.79 54.4114 224.869 54.3235C224.925 54.243 224.947 54.1443 224.929 54.0486C224.852 53.31 224.92 52.5639 225.13 51.85C225.383 51.1464 225.982 50.5115 226.732 50.3989C227.837 50.234 228.765 51.1711 229.415 52.0478C230.099 52.9762 230.721 53.9456 231.278 54.9501C231.314 55.0151 231.345 55.0821 231.372 55.1507C231.905 53.9844 232.185 52.7244 232.194 51.4489C232.203 50.1735 231.941 48.9099 231.424 47.7367C230.907 46.5635 230.146 45.5058 229.188 44.6293C228.231 43.7528 227.098 43.0763 225.859 42.6418C224.619 42.2073 223.301 42.0241 221.986 42.1037C220.671 42.1832 219.386 42.5237 218.213 43.104C217.039 43.6844 216.002 44.4921 215.164 45.4771C214.327 46.4621 213.708 47.6032 213.346 48.8296V48.8158Z" fill="black"/>
<path d="M229.415 51.8939C228.765 51.0089 227.837 50.0745 226.729 50.2449C225.971 50.3576 225.386 50.9925 225.13 51.6933C224.92 52.4072 224.852 53.1535 224.932 53.8919C224.947 53.9879 224.925 54.0861 224.869 54.1668C224.781 54.2575 224.633 54.2437 224.506 54.2382C223.889 54.2162 223.276 54.6038 222.683 54.4334C222.089 54.263 221.785 53.5457 221.649 52.9273C221.513 52.3089 221.365 51.6026 220.814 51.2645C220.263 50.9265 219.511 51.0749 219.028 50.6736C218.264 50.047 218.804 48.6536 218.06 48.0023C217.492 47.5048 216.586 47.7907 215.93 48.1754C215.274 48.5602 214.553 49.0411 213.811 48.8488C213.561 48.7828 213.337 48.6454 213.093 48.5547C211.926 48.1232 210.412 48.8543 209.452 48.0792C209.104 47.742 208.854 47.3221 208.725 46.8617C208.462 46.2391 208.284 45.5859 208.194 44.9187C208.11 44.2442 208.301 43.5644 208.728 43.0251C209.353 42.3132 210.409 42.1346 211.207 41.6097C211.886 41.1589 212.343 40.4746 212.792 39.8013C213.241 39.1279 213.675 38.4271 214.331 37.9517C214.987 37.4762 215.907 37.2398 216.64 37.5999C216.871 37.7559 217.127 37.8738 217.398 37.9489C217.693 37.9526 217.984 37.8754 218.236 37.7263C220.967 36.4813 224.148 36.7012 227.144 37.0722C228.342 37.2206 229.557 37.3937 230.651 37.8967C231.744 38.3996 232.709 39.2708 233.016 40.4032C233.26 41.2991 233.073 42.2748 233.368 43.1515C233.567 43.7506 233.976 44.2508 234.22 44.8527C234.859 46.4605 234.095 48.2249 233.772 49.9179C233.419 51.7675 233.595 53.7655 232.783 55.5189C232.624 55.8625 232.445 56.4644 232.045 56.239C231.761 56.0714 231.46 55.0957 231.29 54.7906C230.729 53.7873 230.103 52.8198 229.415 51.8939Z" fill="#9A5E7F"/>
<path opacity="0.1" d="M246.723 81.683L248.143 85.5966C248.143 85.5966 244.781 97.6892 243.205 100.231C241.629 102.774 239.32 106.025 239.32 106.025C239.32 106.025 235.436 107.908 230.918 107.042C226.4 106.176 213.215 103.892 213.215 103.892C213.215 103.892 212.11 104.096 211.534 103.282C210.958 102.469 207.956 102.056 207.956 102.056C207.956 102.056 204.492 97.178 208.745 95.1443C208.745 95.1443 209.271 96.2628 211.528 95.5016C213.786 94.7403 214.467 96.1089 214.467 96.1089C214.467 96.1089 218.159 96.8208 220.192 96.5679C222.225 96.3151 227.334 96.2106 227.859 95.8039C227.993 95.6909 228.166 95.6331 228.343 95.6429C228.52 95.6526 228.686 95.7292 228.805 95.8561C228.805 95.8561 230.063 95.3999 230.483 94.9409C230.904 94.4819 231.483 95.4493 231.483 95.4493C231.483 95.4493 232.218 95.0426 232.008 94.5342C231.798 94.0257 232.69 92.0964 232.69 92.0964C232.69 92.0964 233.11 90.8239 232.849 89.807C232.587 88.7901 234.161 85.1349 234.161 85.1349C234.181 84.5182 234.11 83.9018 233.951 83.3045C233.686 82.392 235.938 80.5562 235.938 80.5562C235.938 80.5562 238.142 70.1867 242.816 73.5919C247.49 76.9971 246.723 81.683 246.723 81.683Z" fill="black"/>
<path d="M247.024 81.683L248.444 85.5966C248.444 85.5966 245.082 97.6892 243.506 100.231C241.93 102.774 239.624 106.025 239.624 106.025C239.624 106.025 235.739 107.908 231.222 107.042C226.704 106.176 213.525 103.892 213.525 103.892C213.525 103.892 212.423 104.096 211.846 103.282C211.27 102.469 208.271 102.056 208.271 102.056C208.271 102.056 204.807 97.178 209.061 95.1443C209.061 95.1443 209.586 96.2628 211.844 95.5016C214.101 94.7403 214.783 96.1089 214.783 96.1089C214.783 96.1089 218.474 96.8208 220.507 96.5679C222.541 96.3151 227.649 96.2106 228.175 95.8039C228.308 95.6909 228.482 95.6331 228.658 95.6429C228.835 95.6526 229.001 95.7292 229.12 95.8561C229.12 95.8561 230.378 95.3999 230.798 94.9409C231.219 94.4819 231.798 95.4493 231.798 95.4493C231.798 95.4493 232.533 95.0426 232.323 94.5342C232.113 94.0257 233.005 92.0964 233.005 92.0964C233.005 92.0964 233.425 90.8239 233.161 89.807C232.897 88.7901 234.476 85.1349 234.476 85.1349C234.496 84.5182 234.426 83.9018 234.266 83.3045C234.002 82.392 236.253 80.5562 236.253 80.5562C236.253 80.5562 238.457 70.1867 243.131 73.5919C247.805 76.9971 247.024 81.683 247.024 81.683Z" fill="#4C4981"/>
<path opacity="0.1" d="M212.894 98.0465C212.945 98.4038 214.101 99.8247 213.681 100.08C213.261 100.336 212.579 100.182 213.209 100.995C213.84 101.809 213.777 103.026 213.366 102.875C212.954 102.724 212.264 100.894 212.264 100.182C212.264 99.4701 212.894 98.0465 212.894 98.0465Z" fill="black"/>
<path opacity="0.1" d="M228.49 97.233C228.49 97.233 228.805 100.792 231.389 101.809C233.973 102.826 228.49 97.233 228.49 97.233Z" fill="black"/>
<path opacity="0.1" d="M233.845 96.01C234.002 96.0622 237.52 97.8926 235.947 98.959C234.374 100.025 233.845 96.01 233.845 96.01Z" fill="black"/>
<path opacity="0.1" d="M234.056 93.4734C234.056 93.4734 239.201 94.4903 237.463 95.3532C235.725 96.2162 234.056 93.4734 234.056 93.4734Z" fill="black"/>
<g opacity="0.1">
<path opacity="0.1" d="M225.142 50.822C225.397 50.1212 225.994 49.4864 226.741 49.3737C227.848 49.2088 228.777 50.146 229.427 51.0227C230.111 51.9511 230.733 52.9204 231.29 53.9249C231.46 54.23 231.75 55.2029 232.045 55.3705C232.446 55.5986 232.613 54.9968 232.783 54.6532C233.596 52.9053 233.42 50.9018 233.772 49.0521C233.979 47.972 234.362 46.8535 234.448 45.7816C234.57 47.1118 234.03 48.5107 233.772 49.8629C233.42 51.7125 233.596 53.7105 232.783 55.4667C232.624 55.8103 232.446 56.4121 232.045 56.184C231.761 56.0164 231.46 55.0435 231.29 54.7384C230.733 53.7339 230.111 52.7646 229.427 51.8362C228.777 50.954 227.848 50.0168 226.741 50.1872C225.982 50.2999 225.397 50.9347 225.142 51.6356C225.015 52.0048 224.944 52.3899 224.932 52.7789C224.875 52.1196 224.947 51.456 225.142 50.822Z" fill="black"/>
<path opacity="0.1" d="M208.726 45.9905C208.853 46.452 209.104 46.8729 209.453 47.2107C210.412 47.9858 211.926 47.2547 213.093 47.6862C213.337 47.7741 213.562 47.9143 213.811 47.9803C214.553 48.1699 215.277 47.6889 215.93 47.3042C216.583 46.9194 217.495 46.6363 218.06 47.1338C218.804 47.7851 218.264 49.1758 219.028 49.8051C219.511 50.2037 220.277 50.08 220.814 50.396C221.351 50.7121 221.513 51.4377 221.649 52.045C221.785 52.6524 222.055 53.3697 222.683 53.5511C223.31 53.7325 223.89 53.3367 224.506 53.3587C224.634 53.3587 224.79 53.378 224.869 53.2873C224.888 53.2641 224.902 53.2381 224.912 53.2103C224.912 53.4164 224.912 53.6198 224.932 53.8232C224.947 53.9192 224.925 54.0172 224.869 54.098C224.781 54.186 224.634 54.1722 224.506 54.1667C223.89 54.1475 223.276 54.5323 222.683 54.3619C222.089 54.1915 221.785 53.4769 221.649 52.8558C221.513 52.2347 221.365 51.5311 220.814 51.2068C220.263 50.8825 219.511 51.0144 219.028 50.6159C218.264 49.9865 218.804 48.5931 218.06 47.9445C217.492 47.4443 216.586 47.7302 215.93 48.1149C215.274 48.4997 214.553 48.9806 213.811 48.791C213.562 48.7251 213.337 48.5849 213.093 48.4969C211.926 48.0655 210.412 48.7965 209.453 48.0215C209.104 47.6832 208.854 47.2625 208.726 46.8012C208.462 46.1794 208.284 45.5272 208.195 44.8609C208.175 44.6338 208.18 44.4052 208.212 44.1793C208.31 44.8001 208.483 45.4079 208.726 45.9905Z" fill="black"/>
</g>
<path d="M28.3344 199.688C28.3344 199.688 16.3282 198.987 17.7424 207.128C17.7424 207.128 17.4584 208.568 18.8101 209.222C18.8101 209.222 18.83 208.617 20.0425 208.821C20.473 208.89 20.9104 208.912 21.3459 208.884C21.9344 208.844 22.4937 208.621 22.939 208.246C22.939 208.246 26.3154 206.897 27.6273 201.557C27.6273 201.557 28.5985 200.394 28.5587 200.095L26.534 200.919C26.534 200.919 27.2269 202.335 26.6817 203.511C26.6817 203.511 26.6164 200.971 26.2274 201.037C26.1478 201.037 25.1738 201.527 25.1738 201.527C25.1738 201.527 26.3665 204 25.4578 205.784C25.4578 205.784 25.7986 202.747 24.7933 201.705L23.3735 202.511C23.3735 202.511 24.7649 205.055 23.8221 207.133C23.8221 207.133 24.0635 203.948 23.0725 202.708L21.7804 203.684C21.7804 203.684 23.0895 206.191 22.2916 207.914C22.2916 207.914 22.1865 204.206 21.5021 203.926C21.5021 203.926 20.3662 204.891 20.1987 205.3C20.1987 205.3 21.0932 207.122 20.5366 208.084C20.5366 208.084 20.1959 205.611 19.9176 205.611C19.9176 205.611 18.7817 207.246 18.6738 208.359C18.6738 208.359 18.7221 206.691 19.645 205.443C18.9953 205.562 18.396 205.863 17.9213 206.309C17.9213 206.309 18.0945 205.152 19.9233 205.05C19.9233 205.05 20.8547 203.808 21.1017 203.734C21.1017 203.734 19.2843 203.585 18.1825 204.058C18.1825 204.058 19.1537 202.958 21.4368 203.464L22.7118 202.456C22.7118 202.456 20.318 202.139 19.3042 202.489C19.3042 202.489 20.4713 201.524 23.0554 202.227L24.444 201.422C24.444 201.422 22.4051 200.996 21.1898 201.147C21.1898 201.147 22.4705 200.479 24.8529 201.205L25.844 200.774C25.844 200.774 24.3503 200.499 23.913 200.444C23.4757 200.389 23.4501 200.282 23.4501 200.282C24.3972 200.129 25.3694 200.233 26.2586 200.584C26.2586 200.584 28.3685 199.814 28.3344 199.688Z" fill="#9F414B"/>
<path opacity="0.1" d="M20.0652 211.322C24.7576 211.322 28.5615 210.699 28.5615 209.931C28.5615 209.163 24.7576 208.54 20.0652 208.54C15.3728 208.54 11.5688 209.163 11.5688 209.931C11.5688 210.699 15.3728 211.322 20.0652 211.322Z" fill="#9F414B"/>
<path d="M51.3529 178.232C51.3529 178.232 44.5831 177.836 45.3896 182.428C45.3489 182.661 45.3852 182.901 45.4933 183.112C45.6014 183.324 45.7758 183.497 45.9916 183.607C45.9916 183.607 45.9916 183.267 46.6873 183.382C46.9304 183.42 47.1771 183.432 47.4228 183.418C47.754 183.394 48.0685 183.268 48.3202 183.058C48.3202 183.058 50.2171 182.307 50.9668 179.284C50.9668 179.284 51.5148 178.627 51.4921 178.46L50.3562 178.93C50.3562 178.93 50.7453 179.73 50.4386 180.392C50.4386 180.392 50.4017 178.96 50.183 178.993C50.1376 178.993 49.5895 179.268 49.5895 179.268C49.5895 179.268 50.2597 180.642 49.7542 181.667C49.7542 181.667 49.9445 179.955 49.3794 179.367L48.5701 179.834C48.5701 179.834 49.3538 181.269 48.8228 182.439C48.8228 182.439 48.9591 180.642 48.3997 179.944L47.6727 180.494C47.6727 180.494 48.4082 181.909 47.9567 182.879C47.9567 182.879 47.897 180.788 47.5109 180.631C47.235 180.857 46.9881 181.115 46.7754 181.398C46.7754 181.398 47.2808 182.426 46.9685 182.967C46.9685 182.967 46.7754 181.574 46.6192 181.568C46.6192 181.568 45.9831 182.489 45.9178 183.124C45.9472 182.537 46.1352 181.969 46.463 181.475C46.0972 181.543 45.7598 181.713 45.4918 181.964C45.4918 181.964 45.5912 181.31 46.6277 181.255C46.6277 181.255 47.1502 180.554 47.2922 180.513C47.2922 180.513 46.2671 180.428 45.6452 180.694C45.6452 180.694 46.1932 180.079 47.4796 180.359L48.1981 179.79C48.1981 179.79 46.8492 179.611 46.2784 179.809C46.2784 179.809 46.9372 179.26 48.394 179.661L49.1749 179.21C48.5731 179.081 47.9563 179.029 47.3405 179.056C47.3405 179.056 48.0646 178.677 49.4049 179.086L49.9729 178.845C49.9729 178.845 49.121 178.682 48.8853 178.658C48.6496 178.633 48.624 178.567 48.624 178.567C49.1583 178.481 49.7068 178.54 50.2086 178.737C50.2086 178.737 51.3842 178.303 51.3529 178.232Z" fill="#9F414B"/>
<path opacity="0.1" d="M46.7014 184.789C49.3472 184.789 51.492 184.439 51.492 184.006C51.492 183.573 49.3472 183.223 46.7014 183.223C44.0557 183.223 41.9109 183.573 41.9109 184.006C41.9109 184.439 44.0557 184.789 46.7014 184.789Z" fill="#9F414B"/>
<path d="M11.4127 182.217C11.4127 182.217 3.24004 181.739 4.21405 187.282C4.1646 187.563 4.20828 187.852 4.33885 188.108C4.46942 188.364 4.68018 188.573 4.94101 188.706C4.94101 188.706 4.94101 188.293 5.77871 188.431C6.07223 188.479 6.37063 188.493 6.66754 188.472C7.06851 188.446 7.44962 188.294 7.7523 188.038C7.7523 188.038 10.0496 187.12 10.9441 183.486C10.9441 183.486 11.6029 182.695 11.5774 182.492L10.1774 183.063C10.1774 183.063 10.6459 184.025 10.2768 184.825C10.2768 184.825 10.2313 183.099 9.96725 183.14C9.9133 183.14 9.25165 183.473 9.25165 183.473C9.25165 183.473 10.061 185.149 9.45043 186.37C9.45043 186.37 9.68044 184.303 8.99608 183.594L8.02775 184.143C8.02775 184.143 8.97336 185.875 8.33159 187.287C8.33159 187.287 8.4963 185.119 7.82329 184.264L6.94299 184.929C6.94299 184.929 7.83181 186.636 7.28943 187.81C7.28943 187.81 7.21844 185.284 6.75273 185.094C6.75273 185.094 5.98317 185.751 5.86391 186.02C5.86391 186.02 6.47444 187.26 6.09676 187.914C6.09676 187.914 5.86391 186.232 5.67365 186.224C5.67365 186.224 4.90693 187.34 4.82174 188.104C4.85975 187.398 5.08785 186.714 5.48339 186.119C5.04039 186.2 4.63154 186.404 4.30776 186.708C4.30776 186.708 4.42702 185.919 5.67365 185.85C5.67365 185.85 6.3069 185.006 6.47444 184.954C6.47444 184.954 5.23918 184.852 4.48666 185.174C4.48666 185.174 5.1483 184.432 6.70161 184.77L7.57056 184.083C7.57056 184.083 5.94058 183.869 5.25053 184.108C5.25053 184.108 6.04564 183.448 7.80625 183.929L8.75187 183.379C8.75187 183.379 7.36326 183.088 6.53691 183.192C6.53691 183.192 7.4087 182.736 9.03016 183.231L9.706 182.937C9.706 182.937 8.6894 182.744 8.39123 182.714C8.09306 182.684 8.07602 182.604 8.07602 182.604C8.7202 182.499 9.38207 182.569 9.98713 182.808C9.98713 182.808 11.4382 182.307 11.4127 182.217Z" fill="#9F414B"/>
<path opacity="0.1" d="M5.78444 190.135C8.9791 190.135 11.5689 189.711 11.5689 189.189C11.5689 188.667 8.9791 188.244 5.78444 188.244C2.58978 188.244 0 188.667 0 189.189C0 189.711 2.58978 190.135 5.78444 190.135Z" fill="#9F414B"/>
<path opacity="0.1" d="M172.573 225C177.266 225 181.07 224.377 181.07 223.609C181.07 222.841 177.266 222.219 172.573 222.219C167.881 222.219 164.077 222.841 164.077 223.609C164.077 224.377 167.881 225 172.573 225Z" fill="#9F414B"/>
<path d="M166.869 217.151C166.869 217.151 171.716 217.005 173.176 215.999C174.635 214.993 180.63 213.801 180.993 215.406C181.357 217.011 188.277 223.433 182.805 223.477C177.333 223.521 170.092 222.653 168.632 221.793C167.173 220.932 166.869 217.151 166.869 217.151Z" fill="#A8A8A8"/>
<path opacity="0.2" d="M182.901 222.914C177.429 222.958 170.188 222.089 168.731 221.232C167.621 220.575 167.178 218.228 167.027 217.145H166.866C166.866 217.145 167.172 220.927 168.629 221.787C170.086 222.647 177.33 223.513 182.802 223.472C184.381 223.472 184.926 222.922 184.898 222.098C184.682 222.601 184.077 222.906 182.901 222.914Z" fill="black"/>
<defs>
<linearGradient id="paint0_linear" x1="202.569" y1="73.9685" x2="202.569" y2="65.1931" gradientUnits="userSpaceOnUse">
<stop stop-color="#808080" stop-opacity="0.25"/>
<stop offset="0.54" stop-color="#808080" stop-opacity="0.12"/>
<stop offset="1" stop-color="#808080" stop-opacity="0.1"/>
</linearGradient>
<linearGradient id="paint1_linear" x1="84616.3" y1="141054" x2="84616.3" y2="30065.1" gradientUnits="userSpaceOnUse">
<stop stop-color="#808080" stop-opacity="0.25"/>
<stop offset="0.54" stop-color="#808080" stop-opacity="0.12"/>
<stop offset="1" stop-color="#808080" stop-opacity="0.1"/>
</linearGradient>
</defs>
</svg>
